<svg width="87" height="64" viewBox="0 0 87 64" fill="none" xmlns="http://www.w3.org/2000/svg">
<path fill-rule="evenodd" clip-rule="evenodd" d="M45.8623 22.5145L45.8618 28.1547H44.2611L44.2619 32.5794C44.2619 33.4823 43.5432 34.2255 42.6251 34.3098L42.4508 34.3178C41.4504 34.3178 40.738 33.5388 40.738 32.5794L40.7375 28.1547H44.2611L44.2619 22.5145H45.8623ZM60.4247 7.34467C62.4617 7.34467 64.113 8.98885 64.113 11.0171V24.4825C64.113 26.5107 62.4617 28.1549 60.4247 28.1549L49.1297 28.1547L49.1306 32.7428C49.1306 34.7607 46.0574 34.8219 45.8712 32.9262L45.8623 32.7428L45.8618 28.1547H49.1297L49.1306 26.3463L49.269 15.0734C49.2704 13.9975 49.2718 13.0361 49.2718 12.3674C50.5778 14.4803 51.0092 16.99 51.3064 19.488C51.5515 21.5294 54.8219 21.5544 54.5767 19.4893C53.7084 9.8563 49.0589 7.93482 49.0589 7.93482C49.0589 7.93482 48.5289 7.6202 47.6412 7.3447L60.4247 7.34467ZM42.4166 7.34424C41.5824 7.61276 40.7129 8.03427 39.8352 8.66457C36.7686 11.4205 36.0604 15.6277 35.5757 19.6912C35.3305 21.7563 38.6015 21.7313 38.8446 19.6912C39.1341 17.2661 39.5472 14.8299 40.7661 12.7552L40.7605 15.0963L40.738 26.347L40.7375 28.1547L29.6884 28.1549C27.6513 28.1549 26 26.5107 26 24.4825V11.0171C26 8.98885 27.6513 7.34467 29.6884 7.34467L42.4166 7.34424Z" fill="white"/>
<path d="M45.0565 6.12065C46.7541 6.12065 48.1302 4.7505 48.1302 3.06033C48.1302 1.37015 46.7541 0 45.0565 0C43.359 0 41.9829 1.37015 41.9829 3.06033C41.9829 4.7505 43.359 6.12065 45.0565 6.12065Z" fill="white"/>
<path d="M48.6616 13.5989L46.8083 11.9811C46.7507 11.9308 46.6487 11.9308 46.5911 11.9811L46.1893 12.3318C46.1293 12.3842 46.1293 12.4691 46.1893 12.5215L47.5322 13.6937L46.1894 14.866C46.1294 14.9184 46.1294 15.0033 46.1894 15.0557L46.5912 15.4064C46.62 15.4316 46.6591 15.4458 46.6998 15.4458C46.7405 15.4458 46.7797 15.4316 46.8085 15.4064L48.6616 13.7887C48.7217 13.7363 48.7217 13.6513 48.6616 13.5989Z" fill="white"/>
<path d="M43.9621 14.8655L42.6194 13.6933L43.9623 12.5211C43.9912 12.496 44.0074 12.4619 44.0074 12.4263C44.0074 12.3907 43.9912 12.3566 43.9623 12.3315L43.5605 11.9807C43.5317 11.9556 43.4926 11.9414 43.4519 11.9414C43.4112 11.9414 43.372 11.9556 43.3432 11.9807L41.4898 13.5984C41.4298 13.6508 41.4298 13.7357 41.4898 13.7881L43.3432 15.4059C43.372 15.431 43.4111 15.4452 43.4518 15.4452C43.4925 15.4452 43.5316 15.431 43.5605 15.4059L43.9623 15.0551C44.0223 15.0028 44.0223 14.9179 43.9621 14.8655Z" fill="white"/>
<path d="M46.1296 11.4367C46.1101 11.4054 46.0772 11.3822 46.0382 11.3722L45.7125 11.2883C45.6312 11.2672 45.5456 11.3079 45.5216 11.379L44.0095 15.8491C43.9979 15.8832 44.0024 15.9199 44.0218 15.9511C44.0413 15.9824 44.0742 16.0056 44.1133 16.0157L44.439 16.0996C44.4535 16.1034 44.4682 16.1052 44.4826 16.1052C44.5489 16.1052 44.6101 16.0673 44.6299 16.0089L46.142 11.5387C46.1535 11.5046 46.1492 11.4679 46.1296 11.4367Z" fill="white"/>
<path d="M5.52464 52.5628V63.7158H3.784V52.5628H0V51H9.30863V52.5628H5.52464ZM10.6709 61.0519C10.6709 61.4781 10.8632 61.8333 11.2479 62.1175C11.6326 62.4016 12.0836 62.5437 12.6007 62.5437C13.3323 62.5437 13.985 62.2892 14.5589 61.7801C15.1328 61.2709 15.4198 60.673 15.4198 59.9863C14.8774 59.5838 14.1206 59.3825 13.1494 59.3825C12.443 59.3825 11.8534 59.5423 11.3804 59.862C10.9074 60.1817 10.6709 60.5783 10.6709 61.0519ZM12.9224 54.7295C14.2089 54.7295 15.2243 55.0521 15.9685 55.6974C16.7127 56.3427 17.0847 57.2277 17.0847 58.3525V63.7158H15.4198V62.5082H15.3441C14.6251 63.5027 13.6665 64 12.4683 64C11.4466 64 10.592 63.7158 9.90461 63.1475C9.21718 62.5792 8.87348 61.8689 8.87348 61.0164C8.87348 60.1166 9.2361 59.4003 9.96137 58.8675C10.6866 58.3347 11.6547 58.0683 12.8656 58.0683C13.8999 58.0683 14.7513 58.2459 15.4198 58.6011V58.2281C15.4198 57.6598 15.1801 57.1774 14.7008 56.7807C14.2215 56.3841 13.6602 56.1858 13.0169 56.1858C12.0457 56.1858 11.2763 56.5706 10.7087 57.3402L9.1762 56.4344C10.0213 55.2978 11.27 54.7295 12.9224 54.7295ZM20.7931 51V63.7158H19.0524V51H20.7931ZM26.9799 64C25.6177 64 24.4951 63.5619 23.6121 62.6858C22.7292 61.8096 22.2877 60.7026 22.2877 59.3648C22.2877 58.0387 22.7166 56.9347 23.5743 56.0526C24.432 55.1705 25.5294 54.7295 26.8664 54.7295C28.2412 54.7295 29.3354 55.1469 30.149 55.9816C30.9626 56.8163 31.3693 57.9854 31.3693 59.4891L31.3504 59.6667H24.0662C24.0914 60.5191 24.3942 61.2058 24.9744 61.7268C25.5546 62.2477 26.2483 62.5082 27.0556 62.5082C28.1656 62.5082 29.0359 61.9873 29.6665 60.9454L31.218 61.6557C30.8017 62.3898 30.2247 62.964 29.4868 63.3784C28.7489 63.7928 27.9133 64 26.9799 64ZM24.1987 58.3169H29.5152C29.4647 57.7131 29.203 57.2129 28.73 56.8163C28.257 56.4196 27.6232 56.2213 26.8285 56.2213C26.1726 56.2213 25.6082 56.4107 25.1352 56.7896C24.6622 57.1685 24.35 57.6776 24.1987 58.3169ZM32.9586 55.0137H34.6236V56.2213H34.6992C34.9641 55.7951 35.3709 55.4399 35.9196 55.1557C36.4683 54.8716 37.039 54.7295 37.6319 54.7295C38.7671 54.7295 39.6405 55.0344 40.2523 55.6441C40.864 56.2539 41.1699 57.1211 41.1699 58.2459V63.7158H39.4292V58.3525C39.3914 56.9317 38.6283 56.2213 37.1399 56.2213C36.4462 56.2213 35.866 56.4847 35.3993 57.0116C34.9326 57.5385 34.6992 58.1689 34.6992 58.903V63.7158H32.9586V55.0137ZM46.4107 63.8579C45.6539 63.8579 45.0264 63.6389 44.5282 63.2008C44.03 62.7627 43.7745 62.153 43.7619 61.3716V56.5055H42.1348V55.0137H43.7619V52.3497H45.5026V55.0137H47.773V56.5055H45.5026V60.8388C45.5026 61.4189 45.6224 61.8126 45.862 62.0198C46.1017 62.227 46.3729 62.3306 46.6756 62.3306C46.8144 62.3306 46.9499 62.3158 47.0824 62.2862C47.2148 62.2566 47.3378 62.2181 47.4513 62.1708L48 63.627C47.5459 63.781 47.0162 63.8579 46.4107 63.8579Z" fill="white"/>
<path d="M57.3402 60.1257C57.3402 61.2986 56.9018 62.2406 56.0249 62.9519C55.1354 63.6506 54.0552 64 52.7845 64C51.6535 64 50.6559 63.6756 49.7918 63.0267C48.9277 62.3779 48.3304 61.492 48 60.369L49.6774 59.6952C49.7918 60.0945 49.9506 60.4563 50.154 60.7807C50.3573 61.1052 50.5955 61.3828 50.8688 61.6136C51.142 61.8445 51.4438 62.0254 51.7742 62.1564C52.1046 62.2874 52.4541 62.3529 52.8226 62.3529C53.6232 62.3529 54.2776 62.1502 54.7859 61.7447C55.2942 61.3391 55.5484 60.7995 55.5484 60.1257C55.5484 59.5642 55.3387 59.0838 54.9194 58.6845C54.5254 58.2977 53.7884 57.9234 52.7082 57.5615C51.6153 57.1747 50.9355 56.9127 50.6686 56.7754C49.2199 56.0517 48.4956 54.9849 48.4956 53.5749C48.4956 52.5891 48.8959 51.7469 49.6965 51.0481C50.5098 50.3494 51.5073 50 52.6891 50C53.7312 50 54.6334 50.262 55.3959 50.7861C56.1584 51.2977 56.6667 51.9403 56.9208 52.7139L55.2815 53.3877C55.129 52.8886 54.8272 52.4737 54.3761 52.143C53.925 51.8124 53.3754 51.6471 52.7273 51.6471C52.0411 51.6471 51.4629 51.8342 50.9927 52.2086C50.5225 52.5579 50.2874 53.0134 50.2874 53.5749C50.2874 54.0365 50.4717 54.4358 50.8402 54.7727C51.2468 55.1096 52.13 55.5089 53.4897 55.9706C54.8749 56.4323 55.8629 56.9969 56.4538 57.6644C57.0447 58.332 57.3402 59.1524 57.3402 60.1257ZM63.4208 64C62.0357 64 60.8856 63.5383 59.9707 62.615C59.0684 61.6667 58.6173 60.5 58.6173 59.115C58.6173 57.705 59.0684 56.5383 59.9707 55.615C60.8856 54.6916 62.0357 54.2299 63.4208 54.2299C64.3739 54.2299 65.2063 54.4639 65.9179 54.9318C66.6295 55.3997 67.1632 56.0455 67.5191 56.869L65.9179 57.5241C65.4223 56.3761 64.5518 55.8021 63.3065 55.8021C62.5059 55.8021 61.8133 56.1203 61.2287 56.7567C60.6569 57.3931 60.371 58.1791 60.371 59.115C60.371 60.0508 60.6569 60.8369 61.2287 61.4733C61.8133 62.1096 62.5059 62.4278 63.3065 62.4278C64.5899 62.4278 65.4922 61.8538 66.0132 60.7059L67.5762 61.361C67.2331 62.1845 66.6962 62.8302 65.9655 63.2981C65.2348 63.766 64.3866 64 63.4208 64ZM70.283 60.893C70.283 61.3422 70.4768 61.7166 70.8644 62.016C71.252 62.3155 71.7063 62.4652 72.2273 62.4652C72.9643 62.4652 73.6219 62.197 74.2001 61.6604C74.7783 61.1239 75.0675 60.4938 75.0675 59.7701C74.521 59.3458 73.7586 59.1337 72.7801 59.1337C72.0684 59.1337 71.4743 59.3021 70.9978 59.639C70.5213 59.9759 70.283 60.3939 70.283 60.893ZM72.5513 54.2299C73.8475 54.2299 74.8705 54.57 75.6202 55.25C76.37 55.93 76.7449 56.8627 76.7449 58.0481V63.7005H75.0675V62.4278H74.9912C74.2669 63.4759 73.3011 64 72.0938 64C71.0645 64 70.2036 63.7005 69.511 63.1016C68.8184 62.5027 68.4721 61.754 68.4721 60.8556C68.4721 59.9073 68.8375 59.1524 69.5682 58.5909C70.2989 58.0294 71.2742 57.7487 72.4941 57.7487C73.5362 57.7487 74.3939 57.9358 75.0675 58.3102V57.9171C75.0675 57.3182 74.826 56.8097 74.3431 56.3917C73.8602 55.9737 73.2947 55.7647 72.6466 55.7647C71.6681 55.7647 70.893 56.1702 70.3211 56.9813L68.7771 56.0267C69.6286 54.8289 70.8866 54.2299 72.5513 54.2299ZM78.7273 54.5294H80.4047V55.8021H80.4809C80.7478 55.3529 81.1576 54.9786 81.7104 54.6791C82.2632 54.3797 82.8382 54.2299 83.4355 54.2299C84.5792 54.2299 85.4592 54.5512 86.0755 55.1938C86.6918 55.8365 87 56.7504 87 57.9358V63.7005H85.2463V58.0481C85.2082 56.5508 84.4394 55.8021 82.9399 55.8021C82.241 55.8021 81.6564 56.0798 81.1862 56.635C80.716 57.1903 80.4809 57.8547 80.4809 58.6283V63.7005H78.7273V54.5294Z" fill="white"/>
</svg>
