<svg width="235" height="58" viewBox="0 0 235 58" fill="none" xmlns="http://www.w3.org/2000/svg">
<path d="M90.7937 13.2392V33.8572H87.7601V13.2392H81.1653V10.3501H97.3885V13.2392H90.7937ZM99.7626 28.9325C99.7626 29.7205 100.098 30.3771 100.768 30.9024C101.439 31.4277 102.225 31.6904 103.126 31.6904C104.401 31.6904 105.538 31.2198 106.539 30.2786C107.539 29.3375 108.039 28.2321 108.039 26.9627C107.094 26.2185 105.775 25.8464 104.082 25.8464C102.851 25.8464 101.823 26.1419 100.999 26.7329C100.175 27.3238 99.7626 28.057 99.7626 28.9325ZM103.686 17.2446C105.929 17.2446 107.698 17.8411 108.995 19.0339C110.292 20.2268 110.941 21.8629 110.941 23.9422V33.8572H108.039V31.6247H107.907C106.654 33.4633 104.983 34.3825 102.895 34.3825C101.114 34.3825 99.6252 33.8572 98.4271 32.8066C97.2291 31.756 96.6301 30.4428 96.6301 28.8669C96.6301 27.2034 97.262 25.8792 98.526 24.8943C99.7901 23.9094 101.477 23.4169 103.588 23.4169C105.39 23.4169 106.874 23.7452 108.039 24.4018V23.7124C108.039 22.6618 107.621 21.7699 106.786 21.0366C105.951 20.3034 104.972 19.9368 103.851 19.9368C102.159 19.9368 100.818 20.6481 99.8285 22.0708L97.1576 20.3964C98.6305 18.2952 100.807 17.2446 103.686 17.2446ZM117.404 10.3501V33.8572H114.37V10.3501H117.404ZM128.186 34.3825C125.812 34.3825 123.856 33.5727 122.317 31.953C120.778 30.3333 120.009 28.2869 120.009 25.8136C120.009 23.3622 120.756 21.3212 122.251 19.6906C123.746 18.0599 125.658 17.2446 127.988 17.2446C130.384 17.2446 132.291 18.0162 133.709 19.5592C135.127 21.1023 135.836 23.2637 135.836 26.0434L135.803 26.3717H123.108C123.152 27.9476 123.68 29.2171 124.691 30.1801C125.702 31.1432 126.911 31.6247 128.318 31.6247C130.252 31.6247 131.769 30.6617 132.868 28.7356L135.572 30.0488C134.847 31.4058 133.841 32.4674 132.555 33.2334C131.269 33.9995 129.813 34.3825 128.186 34.3825ZM123.339 23.8765H132.605C132.517 22.7603 132.061 21.8355 131.236 21.1023C130.412 20.3691 129.307 20.0025 127.922 20.0025C126.779 20.0025 125.795 20.3527 124.971 21.0531C124.147 21.7535 123.603 22.6946 123.339 23.8765ZM138.606 17.7699H141.508V20.0025H141.639C142.101 19.2145 142.81 18.5579 143.766 18.0326C144.723 17.5073 145.717 17.2446 146.75 17.2446C148.729 17.2446 150.251 17.8082 151.317 18.9354C152.383 20.0627 152.917 21.6659 152.917 23.7452V33.8572H149.883V23.9422C149.817 21.3157 148.487 20.0025 145.893 20.0025C144.684 20.0025 143.673 20.4895 142.859 21.4635C142.046 22.4374 141.639 23.6029 141.639 24.96V33.8572H138.606V17.7699ZM162.05 34.1199C160.731 34.1199 159.638 33.715 158.769 32.9051C157.901 32.0953 157.456 30.9681 157.434 29.5235V20.5278H154.598V17.7699H157.434V12.8453H160.468V17.7699H164.424V20.5278H160.468V28.5386C160.468 29.6111 160.676 30.3388 161.094 30.7218C161.512 31.1049 161.984 31.2964 162.512 31.2964C162.754 31.2964 162.99 31.269 163.221 31.2143C163.452 31.1596 163.666 31.0885 163.864 31.0009L164.82 33.6931C164.029 33.9776 163.105 34.1199 162.05 34.1199Z" fill="#444F61"/>
<path d="M182.428 27.5869C182.428 29.6443 181.67 31.2968 180.153 32.5444C178.614 33.7701 176.746 34.3829 174.547 34.3829C172.591 34.3829 170.865 33.8138 169.371 32.6757C167.876 31.5375 166.843 29.9835 166.271 28.0137L169.173 26.8317C169.371 27.5321 169.645 28.1669 169.997 28.7359C170.349 29.305 170.761 29.792 171.234 30.1969C171.706 30.6019 172.228 30.9192 172.8 31.149C173.371 31.3789 173.976 31.4938 174.613 31.4938C175.998 31.4938 177.13 31.1381 178.01 30.4268C178.889 29.7154 179.329 28.7688 179.329 27.5869C179.329 26.6019 178.966 25.7593 178.241 25.0589C177.559 24.3803 176.284 23.7237 174.416 23.089C172.525 22.4105 171.349 21.9508 170.887 21.7101C168.381 20.4406 167.128 18.5692 167.128 16.0959C167.128 14.3668 167.821 12.8894 169.206 11.6637C170.613 10.438 172.338 9.8252 174.383 9.8252C176.185 9.8252 177.746 10.2848 179.065 11.2041C180.384 12.1015 181.263 13.2287 181.703 14.5857L178.867 15.7676C178.603 14.8921 178.081 14.1644 177.301 13.5844C176.52 13.0043 175.57 12.7143 174.449 12.7143C173.261 12.7143 172.261 13.0426 171.448 13.6993C170.635 14.3121 170.228 15.111 170.228 16.0959C170.228 16.9058 170.547 17.6062 171.184 18.1971C171.888 18.7881 173.415 19.4885 175.767 20.2983C178.164 21.1082 179.873 22.0986 180.895 23.2696C181.917 24.4405 182.428 25.8796 182.428 27.5869ZM192.947 34.3829C190.551 34.3829 188.561 33.5731 186.979 31.9534C185.418 30.2899 184.637 28.2435 184.637 25.814C184.637 23.3407 185.418 21.2942 186.979 19.6745C188.561 18.0549 190.551 17.245 192.947 17.245C194.596 17.245 196.035 17.6554 197.266 18.4762C198.498 19.297 199.421 20.4297 200.036 21.8742L197.266 23.0233C196.409 21.0097 194.903 20.0029 192.749 20.0029C191.364 20.0029 190.166 20.561 189.155 21.6772C188.166 22.7935 187.671 24.1724 187.671 25.814C187.671 27.4555 188.166 28.8344 189.155 29.9507C190.166 31.067 191.364 31.6251 192.749 31.6251C194.969 31.6251 196.53 30.6183 197.431 28.6046L200.135 29.7537C199.542 31.1983 198.613 32.331 197.349 33.1517C196.085 33.9725 194.618 34.3829 192.947 34.3829ZM204.818 28.9329C204.818 29.7209 205.153 30.3775 205.823 30.9028C206.494 31.4281 207.28 31.6908 208.181 31.6908C209.456 31.6908 210.593 31.2202 211.594 30.279C212.594 29.3378 213.094 28.2325 213.094 26.9631C212.149 26.2189 210.83 25.8468 209.137 25.8468C207.906 25.8468 206.878 26.1423 206.054 26.7332C205.23 27.3242 204.818 28.0574 204.818 28.9329ZM208.741 17.245C210.984 17.245 212.753 17.8415 214.05 19.0343C215.347 20.2272 215.996 21.8633 215.996 23.9426V33.8576H213.094V31.6251H212.962C211.709 33.4636 210.038 34.3829 207.95 34.3829C206.169 34.3829 204.68 33.8576 203.482 32.807C202.284 31.7564 201.685 30.4432 201.685 28.8673C201.685 27.2038 202.317 25.8796 203.581 24.8947C204.845 23.9098 206.532 23.4173 208.642 23.4173C210.445 23.4173 211.929 23.7456 213.094 24.4022V23.7128C213.094 22.6622 212.676 21.7703 211.841 21.037C211.006 20.3038 210.027 19.9372 208.906 19.9372C207.214 19.9372 205.873 20.6485 204.883 22.0712L202.213 20.3968C203.685 18.2956 205.862 17.245 208.741 17.245ZM219.425 17.7703H222.327V20.0029H222.459C222.92 19.2149 223.629 18.5583 224.585 18.033C225.542 17.5077 226.536 17.245 227.57 17.245C229.548 17.245 231.07 17.8086 232.136 18.9358C233.203 20.0631 233.736 21.6663 233.736 23.7456V33.8576H230.702V23.9426C230.636 21.3161 229.306 20.0029 226.712 20.0029C225.503 20.0029 224.492 20.4898 223.679 21.4638C222.865 22.4378 222.459 23.6033 222.459 24.9604V33.8576H219.425V17.7703Z" fill="#5D8AF2"/>
<path fill-rule="evenodd" clip-rule="evenodd" d="M33.2942 37.7401L33.2934 47.1945H30.6101L30.6116 54.6115C30.6116 56.125 29.4067 57.3707 27.8679 57.5121L27.5756 57.5254C25.8987 57.5254 24.7045 56.2196 24.7045 54.6115L24.7036 47.1945H30.6101L30.6116 37.7401H33.2942ZM57.7044 12.3118C61.1189 12.3118 63.887 15.0678 63.887 18.4676V41.039C63.887 44.4388 61.1189 47.1949 57.7044 47.1949L38.7711 47.1945L38.7726 54.8853C38.7726 58.2679 33.6212 58.3704 33.309 55.1928L33.2942 54.8853L33.2934 47.1945H38.7711L38.7726 44.1632L39.0046 25.2671C39.007 23.4636 39.0093 21.852 39.0093 20.7311C41.1986 24.2729 41.9216 28.4798 42.4198 32.6669C42.8308 36.089 48.3127 36.1308 47.9017 32.6693C46.4461 16.5219 38.6525 13.301 38.6525 13.301C38.6525 13.301 37.764 12.7736 36.2761 12.3118L57.7044 12.3118ZM27.5184 12.311C26.12 12.7611 24.6625 13.4677 23.1913 14.5242C18.0509 19.1439 16.8638 26.1961 16.0512 33.0076C15.6402 36.4692 21.1233 36.4273 21.5308 33.0076C22.016 28.9426 22.7084 24.8589 24.7516 21.3811L24.7422 25.3054L24.7045 44.1644L24.7036 47.1945L6.18261 47.1949C2.76805 47.1949 0 44.4388 0 41.039V18.4676C0 15.0678 2.76805 12.3118 6.18261 12.3118L27.5184 12.311Z" fill="#5E89F2"/>
<path d="M31.9434 10.2597C34.7889 10.2597 37.0956 7.96302 37.0956 5.12987C37.0956 2.29672 34.7889 0 31.9434 0C29.098 0 26.7913 2.29672 26.7913 5.12987C26.7913 7.96302 29.098 10.2597 31.9434 10.2597Z" fill="#5E89F2"/>
<path d="M37.9868 22.7951L34.8802 20.0833C34.7836 19.9989 34.6127 19.9989 34.5161 20.0833L33.8425 20.6712C33.7419 20.759 33.7419 20.9013 33.8425 20.9892L36.0937 22.954L33.8427 24.9191C33.7421 25.0069 33.7421 25.1493 33.8427 25.2371L34.5162 25.825C34.5645 25.8672 34.63 25.891 34.6983 25.891C34.7665 25.891 34.8321 25.8672 34.8804 25.825L37.9868 23.1133C38.0874 23.0254 38.0874 22.8829 37.9868 22.7951Z" fill="#5E89F2"/>
<path d="M30.1092 24.9186L27.8585 22.9537L30.1096 20.9889C30.1579 20.9467 30.1851 20.8896 30.1851 20.8299C30.1851 20.7703 30.1581 20.7131 30.1096 20.6709L29.4361 20.083C29.3878 20.0408 29.3223 20.0171 29.254 20.0171C29.1857 20.0171 29.1202 20.0408 29.0719 20.083L25.9651 22.7946C25.8645 22.8824 25.8645 23.0247 25.9651 23.1127L29.0717 25.8244C29.12 25.8665 29.1856 25.8904 29.2539 25.8904C29.3221 25.8904 29.3877 25.8665 29.436 25.8244L30.1095 25.2365C30.2101 25.1488 30.2101 25.0064 30.1092 24.9186Z" fill="#5E89F2"/>
<path d="M33.7425 19.1707C33.7098 19.1183 33.6546 19.0794 33.5892 19.0626L33.0432 18.9219C32.9069 18.8866 32.7634 18.9548 32.7233 19.0739L30.1885 26.567C30.1692 26.6242 30.1767 26.6857 30.2092 26.738C30.2418 26.7905 30.2971 26.8293 30.3625 26.8462L30.9085 26.9869C30.9329 26.9932 30.9575 26.9962 30.9816 26.9962C31.0927 26.9962 31.1954 26.9328 31.2285 26.8349L33.7632 19.3417C33.7825 19.2845 33.7752 19.223 33.7425 19.1707Z" fill="#5E89F2"/>
<path opacity="0.58" d="M87.7952 51.5893H89.5594V52.7785H87.6515L87.3771 55H86.1879L86.4623 52.7785H84.2539L83.9794 55H82.7903L83.0647 52.7785H81.3006V51.5893H83.2085L83.509 49.2633H81.7449V48.0741H83.6528L83.9272 45.8526H85.1163L84.8419 48.0741H87.0373L87.3117 45.8526H88.5009L88.2265 48.0741H89.9776L89.9906 49.2633H88.0827L87.7952 51.5893ZM86.6061 51.5893L86.8936 49.2633H84.6982L84.3976 51.5893H86.6061ZM94.0277 45.8526V55H92.3289V47.277H90.3949V45.8526H94.0277ZM101.963 47.29H98.9311V45.8526H106.693V47.29H103.662V55H101.963V47.29ZM110.233 55.0915C109.527 55.0915 108.891 54.939 108.325 54.6341C107.759 54.3292 107.315 53.9067 106.992 53.3665C106.679 52.8177 106.522 52.1991 106.522 51.5109C106.522 50.8227 106.679 50.2085 106.992 49.6684C107.315 49.1282 107.759 48.7057 108.325 48.4008C108.891 48.0959 109.527 47.9434 110.233 47.9434C110.947 47.9434 111.588 48.0959 112.154 48.4008C112.72 48.7057 113.16 49.1282 113.474 49.6684C113.796 50.2085 113.957 50.8227 113.957 51.5109C113.957 52.1991 113.796 52.8177 113.474 53.3665C113.16 53.9067 112.72 54.3292 112.154 54.6341C111.588 54.939 110.947 55.0915 110.233 55.0915ZM110.233 53.6932C110.834 53.6932 111.331 53.4929 111.723 53.0921C112.115 52.6914 112.311 52.1643 112.311 51.5109C112.311 50.8575 112.115 50.3305 111.723 49.9297C111.331 49.529 110.834 49.3286 110.233 49.3286C109.632 49.3286 109.135 49.529 108.743 49.9297C108.36 50.3305 108.168 50.8575 108.168 51.5109C108.168 52.1643 108.36 52.6914 108.743 53.0921C109.135 53.4929 109.632 53.6932 110.233 53.6932ZM118.656 55.0915C117.95 55.0915 117.314 54.939 116.748 54.6341C116.182 54.3292 115.737 53.9067 115.415 53.3665C115.101 52.8177 114.944 52.1991 114.944 51.5109C114.944 50.8227 115.101 50.2085 115.415 49.6684C115.737 49.1282 116.182 48.7057 116.748 48.4008C117.314 48.0959 117.95 47.9434 118.656 47.9434C119.37 47.9434 120.01 48.0959 120.577 48.4008C121.143 48.7057 121.583 49.1282 121.896 49.6684C122.219 50.2085 122.38 50.8227 122.38 51.5109C122.38 52.1991 122.219 52.8177 121.896 53.3665C121.583 53.9067 121.143 54.3292 120.577 54.6341C120.01 54.939 119.37 55.0915 118.656 55.0915ZM118.656 53.6932C119.257 53.6932 119.753 53.4929 120.145 53.0921C120.537 52.6914 120.733 52.1643 120.733 51.5109C120.733 50.8575 120.537 50.3305 120.145 49.9297C119.753 49.529 119.257 49.3286 118.656 49.3286C118.055 49.3286 117.558 49.529 117.166 49.9297C116.783 50.3305 116.591 50.8575 116.591 51.5109C116.591 52.1643 116.783 52.6914 117.166 53.0921C117.558 53.4929 118.055 53.6932 118.656 53.6932ZM123.942 45.3037H125.575V55H123.942V45.3037ZM130.568 52.0075L129.353 53.1574V55H127.719V45.3037H129.353V51.1581L132.737 48.0218H134.698L131.783 50.949L134.972 55H132.986L130.568 52.0075ZM135.963 48.0218H137.597V55H135.963V48.0218ZM136.787 46.8719C136.49 46.8719 136.242 46.7804 136.042 46.5974C135.841 46.4058 135.741 46.1705 135.741 45.8918C135.741 45.613 135.841 45.3821 136.042 45.1992C136.242 45.0075 136.49 44.9117 136.787 44.9117C137.083 44.9117 137.331 45.0032 137.531 45.1861C137.732 45.3603 137.832 45.5825 137.832 45.8526C137.832 46.1401 137.732 46.384 137.531 46.5844C137.34 46.776 137.091 46.8719 136.787 46.8719ZM143.935 54.621C143.744 54.7778 143.509 54.8955 143.23 54.9739C142.96 55.0523 142.672 55.0915 142.367 55.0915C141.601 55.0915 141.008 54.8911 140.59 54.4904C140.172 54.0896 139.963 53.5059 139.963 52.7393V49.3809H138.813V48.0741H139.963V46.4798H141.596V48.0741H143.465V49.3809H141.596V52.7001C141.596 53.0398 141.679 53.3012 141.845 53.4841C142.01 53.6584 142.25 53.7455 142.563 53.7455C142.929 53.7455 143.234 53.6497 143.478 53.458L143.935 54.621ZM151.726 46.5321C151.038 46.5321 150.694 46.9067 150.694 47.6559V48.0741H152.615V49.3809H150.746V55H149.113V49.3809H147.963V48.0741H149.113V47.6298C149.113 46.8806 149.331 46.2925 149.766 45.8656C150.202 45.43 150.816 45.2122 151.609 45.2122C152.236 45.2122 152.728 45.3386 153.085 45.5912L152.628 46.8196C152.349 46.6279 152.049 46.5321 151.726 46.5321ZM156.749 55.0915C156.043 55.0915 155.407 54.939 154.841 54.6341C154.275 54.3292 153.83 53.9067 153.508 53.3665C153.194 52.8177 153.037 52.1991 153.037 51.5109C153.037 50.8227 153.194 50.2085 153.508 49.6684C153.83 49.1282 154.275 48.7057 154.841 48.4008C155.407 48.0959 156.043 47.9434 156.749 47.9434C157.463 47.9434 158.103 48.0959 158.67 48.4008C159.236 48.7057 159.676 49.1282 159.99 49.6684C160.312 50.2085 160.473 50.8227 160.473 51.5109C160.473 52.1991 160.312 52.8177 159.99 53.3665C159.676 53.9067 159.236 54.3292 158.67 54.6341C158.103 54.939 157.463 55.0915 156.749 55.0915ZM156.749 53.6932C157.35 53.6932 157.846 53.4929 158.238 53.0921C158.63 52.6914 158.826 52.1643 158.826 51.5109C158.826 50.8575 158.63 50.3305 158.238 49.9297C157.846 49.529 157.35 49.3286 156.749 49.3286C156.148 49.3286 155.651 49.529 155.259 49.9297C154.876 50.3305 154.684 50.8575 154.684 51.5109C154.684 52.1643 154.876 52.6914 155.259 53.0921C155.651 53.4929 156.148 53.6932 156.749 53.6932ZM163.59 49.0411C164.061 48.3093 164.888 47.9434 166.073 47.9434V49.4985C165.934 49.4723 165.807 49.4593 165.694 49.4593C165.058 49.4593 164.561 49.6466 164.204 50.0212C163.847 50.3871 163.668 50.9185 163.668 51.6154V55H162.035V48.0218H163.59V49.0411ZM172.689 49.0411C173.159 48.3093 173.987 47.9434 175.172 47.9434V49.4985C175.033 49.4723 174.906 49.4593 174.793 49.4593C174.157 49.4593 173.66 49.6466 173.303 50.0212C172.946 50.3871 172.767 50.9185 172.767 51.6154V55H171.134V48.0218H172.689V49.0411ZM183.054 51.5501C183.054 51.6634 183.045 51.8245 183.028 52.0336H177.552C177.648 52.5476 177.896 52.9571 178.297 53.262C178.707 53.5582 179.212 53.7063 179.813 53.7063C180.58 53.7063 181.211 53.4536 181.708 52.9484L182.583 53.9546C182.27 54.3292 181.873 54.6123 181.394 54.804C180.915 54.9956 180.375 55.0915 179.774 55.0915C179.007 55.0915 178.332 54.939 177.748 54.6341C177.165 54.3292 176.712 53.9067 176.389 53.3665C176.076 52.8177 175.919 52.1991 175.919 51.5109C175.919 50.8314 176.071 50.2216 176.376 49.6814C176.69 49.1326 177.121 48.7057 177.67 48.4008C178.219 48.0959 178.837 47.9434 179.526 47.9434C180.205 47.9434 180.811 48.0959 181.342 48.4008C181.882 48.697 182.3 49.1195 182.596 49.6684C182.901 50.2085 183.054 50.8357 183.054 51.5501ZM179.526 49.2502C179.003 49.2502 178.558 49.407 178.193 49.7206C177.835 50.0255 177.618 50.435 177.539 50.949H181.499C181.429 50.4437 181.216 50.0343 180.858 49.7206C180.501 49.407 180.057 49.2502 179.526 49.2502ZM187.824 55.0915C187.101 55.0915 186.452 54.939 185.877 54.6341C185.302 54.3292 184.854 53.9067 184.531 53.3665C184.209 52.8177 184.048 52.1991 184.048 51.5109C184.048 50.8227 184.209 50.2085 184.531 49.6684C184.854 49.1282 185.298 48.7057 185.864 48.4008C186.439 48.0959 187.093 47.9434 187.824 47.9434C188.513 47.9434 189.114 48.0828 189.628 48.3616C190.151 48.6404 190.543 49.0411 190.804 49.5638L189.549 50.2956C189.349 49.9733 189.096 49.7337 188.791 49.5769C188.495 49.4114 188.169 49.3286 187.811 49.3286C187.202 49.3286 186.696 49.529 186.296 49.9297C185.895 50.3217 185.694 50.8488 185.694 51.5109C185.694 52.173 185.89 52.7044 186.282 53.1052C186.683 53.4972 187.193 53.6932 187.811 53.6932C188.169 53.6932 188.495 53.6148 188.791 53.458C189.096 53.2925 189.349 53.0485 189.549 52.7262L190.804 53.458C190.534 53.9807 190.137 54.3858 189.615 54.6733C189.101 54.9521 188.504 55.0915 187.824 55.0915ZM193.771 49.0411C194.241 48.3093 195.069 47.9434 196.254 47.9434V49.4985C196.114 49.4723 195.988 49.4593 195.875 49.4593C195.239 49.4593 194.742 49.6466 194.385 50.0212C194.028 50.3871 193.849 50.9185 193.849 51.6154V55H192.216V48.0218H193.771V49.0411ZM204.459 48.0218V55H202.904V54.1114C202.643 54.425 202.316 54.669 201.924 54.8432C201.532 55.0087 201.11 55.0915 200.657 55.0915C199.725 55.0915 198.988 54.8345 198.448 54.3205C197.917 53.7978 197.651 53.0268 197.651 52.0075V48.0218H199.285V51.7853C199.285 52.4126 199.424 52.883 199.703 53.1966C199.99 53.5016 200.395 53.654 200.918 53.654C201.502 53.654 201.963 53.4754 202.303 53.1182C202.652 52.7523 202.826 52.2296 202.826 51.5501V48.0218H204.459ZM206.598 48.0218H208.232V55H206.598V48.0218ZM207.421 46.8719C207.125 46.8719 206.877 46.7804 206.677 46.5974C206.476 46.4058 206.376 46.1705 206.376 45.8918C206.376 45.613 206.476 45.3821 206.677 45.1992C206.877 45.0075 207.125 44.9117 207.421 44.9117C207.718 44.9117 207.966 45.0032 208.166 45.1861C208.367 45.3603 208.467 45.5825 208.467 45.8526C208.467 46.1401 208.367 46.384 208.166 46.5844C207.975 46.776 207.726 46.8719 207.421 46.8719ZM214.57 54.621C214.379 54.7778 214.143 54.8955 213.865 54.9739C213.595 55.0523 213.307 55.0915 213.002 55.0915C212.236 55.0915 211.643 54.8911 211.225 54.4904C210.807 54.0896 210.598 53.5059 210.598 52.7393V49.3809H209.448V48.0741H210.598V46.4798H212.231V48.0741H214.1V49.3809H212.231V52.7001C212.231 53.0398 212.314 53.3012 212.479 53.4841C212.645 53.6584 212.885 53.7455 213.198 53.7455C213.564 53.7455 213.869 53.6497 214.113 53.458L214.57 54.621ZM222.244 51.5501C222.244 51.6634 222.236 51.8245 222.218 52.0336H216.743C216.839 52.5476 217.087 52.9571 217.488 53.262C217.897 53.5582 218.402 53.7063 219.004 53.7063C219.77 53.7063 220.402 53.4536 220.898 52.9484L221.774 53.9546C221.46 54.3292 221.064 54.6123 220.585 54.804C220.106 54.9956 219.565 55.0915 218.964 55.0915C218.198 55.0915 217.523 54.939 216.939 54.6341C216.355 54.3292 215.902 53.9067 215.58 53.3665C215.266 52.8177 215.109 52.1991 215.109 51.5109C215.109 50.8314 215.262 50.2216 215.567 49.6814C215.88 49.1326 216.312 48.7057 216.86 48.4008C217.409 48.0959 218.028 47.9434 218.716 47.9434C219.396 47.9434 220.001 48.0959 220.532 48.4008C221.073 48.697 221.491 49.1195 221.787 49.6684C222.092 50.2085 222.244 50.8357 222.244 51.5501ZM218.716 49.2502C218.193 49.2502 217.749 49.407 217.383 49.7206C217.026 50.0255 216.808 50.435 216.73 50.949H220.689C220.62 50.4437 220.406 50.0343 220.049 49.7206C219.692 49.407 219.247 49.2502 218.716 49.2502ZM225.368 49.0411C225.839 48.3093 226.667 47.9434 227.851 47.9434V49.4985C227.712 49.4723 227.586 49.4593 227.472 49.4593C226.836 49.4593 226.34 49.6466 225.983 50.0212C225.625 50.3871 225.447 50.9185 225.447 51.6154V55H223.813V48.0218H225.368V49.0411ZM231.419 55.0915C230.852 55.0915 230.299 55.0174 229.759 54.8693C229.219 54.7212 228.788 54.5339 228.465 54.3074L229.093 53.066C229.406 53.2751 229.781 53.4449 230.216 53.5756C230.661 53.6976 231.096 53.7586 231.523 53.7586C232.499 53.7586 232.987 53.5016 232.987 52.9876C232.987 52.7436 232.861 52.5738 232.608 52.4779C232.364 52.3821 231.968 52.2906 231.419 52.2035C230.844 52.1164 230.373 52.0162 230.007 51.9029C229.65 51.7897 229.337 51.5937 229.067 51.3149C228.805 51.0274 228.674 50.631 228.674 50.1257C228.674 49.4636 228.949 48.9366 229.498 48.5445C230.055 48.1438 230.805 47.9434 231.745 47.9434C232.225 47.9434 232.704 48 233.183 48.1133C233.662 48.2178 234.054 48.3616 234.359 48.5445L233.732 49.786C233.139 49.4375 232.473 49.2633 231.732 49.2633C231.253 49.2633 230.887 49.3373 230.635 49.4854C230.391 49.6248 230.269 49.8121 230.269 50.0473C230.269 50.3087 230.399 50.496 230.661 50.6092C230.931 50.7138 231.345 50.814 231.902 50.9098C232.46 50.9969 232.917 51.0971 233.274 51.2103C233.632 51.3236 233.936 51.5153 234.189 51.7853C234.45 52.0554 234.581 52.4387 234.581 52.9353C234.581 53.5887 234.298 54.1114 233.732 54.5034C233.165 54.8955 232.394 55.0915 231.419 55.0915Z" fill="#444E60"/>
</svg>
