<svg width="84" height="99" viewBox="0 0 84 99" fill="none" xmlns="http://www.w3.org/2000/svg">
<path fill-rule="evenodd" clip-rule="evenodd" d="M45.6834 96.6746C43.6911 96.2687 40.4649 95.6972 36.4803 96.055C32.4957 96.4129 27.7472 97.6895 24.0724 98.3091C10.7672 100.536 2.72849 89.3036 3.4282 76.9758C3.64185 73.2049 4.35225 70.0695 3.92494 66.5389C3.49764 63.0029 1.93263 59.0664 0.864364 55.3381C-2.33509 44.1855 3.58844 33.1503 14.6503 29.7158C17.7803 28.7383 21.5299 28.4072 26.0914 28.8879C30.6529 29.3686 36.0316 30.6612 41.0365 31.3716C46.0466 32.082 50.6775 32.2155 54.6782 33.0648C58.6789 33.9141 62.0492 35.4791 64.0415 37.6423C66.0339 39.8002 66.6535 42.551 67.4119 44.57C68.1704 46.589 69.0731 47.8656 70.8037 49.2918C72.5342 50.7179 75.0981 52.2829 77.4002 54.3019C89.8829 65.2409 83.1902 87.0496 69.5484 94.1161C66.8457 95.5156 64.1377 96.3221 60.7459 96.7921C57.3542 97.2675 53.2734 97.4117 50.8538 97.3637C48.4395 97.3156 47.6757 97.0752 45.6834 96.6746Z" fill="#668BEB" fill-opacity="0.12"/>
<path fill-rule="evenodd" clip-rule="evenodd" d="M56.6439 42.5506C57.8991 43.8699 59.2345 45.4295 60.2226 46.9572C61.2054 48.4848 61.8517 49.9697 61.8571 51.4011C61.8677 52.838 61.2535 54.2214 60.6499 55.311C60.0463 56.4006 59.4588 57.1965 59.1116 58.0404C58.7644 58.8843 58.6683 59.7817 59.1383 60.914C59.6137 62.0411 60.6606 63.3977 61.5099 64.8987C62.3591 66.3996 62.9948 68.034 63.1497 69.7913C63.3045 71.5433 62.968 73.4181 62.1775 74.9403C61.3817 76.4626 60.1265 77.6431 58.9247 78.2573C57.7175 78.8716 56.5638 78.925 53.8397 76.6923C51.1103 74.465 46.8052 69.9569 44.3963 66.469C41.9873 62.9811 41.4746 60.5241 41.6455 57.4742C41.8164 54.4243 42.6657 50.7922 43.8461 47.721C45.0212 44.6497 46.5221 42.1446 48.1031 40.7986C49.6895 39.4526 51.3614 39.2656 52.7821 39.709C54.2136 40.1576 55.394 41.2313 56.6439 42.5506Z" fill="#342446" stroke="#1B1C1C" stroke-width="0.0511876" stroke-miterlimit="10"/>
<path fill-rule="evenodd" clip-rule="evenodd" d="M40.1444 24.2046C38.9159 23.8307 37.479 23.2699 35.4547 22.9601C33.4303 22.6556 30.8184 22.6022 28.1638 23.82C25.5145 25.0378 22.8225 27.5216 21.5245 30.5982C20.2319 33.6748 20.3334 37.3389 21.1399 40.5384C21.9465 43.7432 23.4581 46.4833 23.8053 48.6892C24.1471 50.8898 23.3299 52.5563 22.3684 54.1374C21.407 55.7131 20.3067 57.1979 19.2171 58.811C18.1274 60.4241 17.0485 62.1707 16.5411 64.398C16.0283 66.6254 16.0817 69.3441 16.3114 71.5875C16.5411 73.8308 16.9523 75.5988 17.9992 77.2386C19.0515 78.8784 20.7393 80.39 22.048 81.4155C23.3566 82.4411 24.2753 82.9805 26.1181 82.0298C27.9662 81.079 30.733 78.6487 32.9496 76.1383C35.1663 73.6279 36.8274 71.0373 37.7034 68.2011C38.5794 65.3648 38.6595 62.2829 38.4565 60.109C38.2482 57.9297 37.7568 56.6531 36.9503 55.0828C36.1437 53.5071 35.0114 51.6376 34.4452 50.4625C33.879 49.2821 33.8737 48.8014 33.7081 47.8399C33.5425 46.8839 33.2167 45.4417 33.2434 44.0583C33.2754 42.6695 33.66 41.3396 34.4932 39.4968C35.3265 37.6487 36.6084 35.2932 37.8102 33.9739C39.0173 32.6546 40.1444 32.3715 41.0631 31.0415C41.9871 29.7115 42.7029 27.3293 42.548 26.0473C42.4037 24.7547 41.3782 24.5785 40.1444 24.2046Z" fill="#342446"/>
<path fill-rule="evenodd" clip-rule="evenodd" d="M30.9147 72.115C31.5717 70.8864 32.6987 69.674 33.3343 68.2104C33.9646 66.7416 34.1088 65.0217 34.2263 63.2644C34.3438 61.5071 34.4346 59.7284 34.3385 58.0192C34.237 56.31 33.9432 54.6809 34.3652 53.9171C34.7818 53.1533 35.9088 53.2654 38.0026 53.5058C40.0964 53.7461 43.1624 54.12 45.4004 54.2856C47.6384 54.4512 49.0432 54.3978 49.8657 54.7503C50.6883 55.0975 50.9286 55.8453 50.7043 57.4904C50.48 59.1355 49.8016 61.678 49.9245 63.7878C50.0527 65.903 50.9874 67.5855 51.8313 68.9689C52.6753 70.3577 53.4337 71.442 52.2266 72.5743C51.0194 73.7067 47.852 74.8818 44.1879 75.6189C40.5291 76.3613 36.3682 76.6658 33.9058 76.6337C31.4382 76.5963 30.6637 76.2224 30.3699 75.4106C30.0654 74.5827 30.2577 73.3381 30.9147 72.115Z" fill="#1B1C1C"/>
<path fill-rule="evenodd" clip-rule="evenodd" d="M45.6835 96.6744C43.6911 96.2684 40.465 95.6969 36.4803 96.0548C32.4957 96.4126 27.7473 97.6892 24.0725 98.3088C22.0908 98.64 20.232 98.672 18.5015 98.4477C18.0368 79.9774 27.5176 67.249 42.3665 67.249C45.9719 67.249 49.0004 68.1731 52.3868 69.5939C59.8967 72.7399 63.7371 76.0248 65.2647 95.8358C63.8707 96.2471 62.3911 96.5569 60.7513 96.7866C57.3596 97.2619 53.2788 97.4061 50.8592 97.3581C48.4396 97.3153 47.6758 97.075 45.6835 96.6744Z" fill="#CB1F1A"/>
<path fill-rule="evenodd" clip-rule="evenodd" d="M37.6127 56.0703C37.602 57.0958 37.5326 58.8905 37.3723 60.4074C37.2121 61.9297 36.9557 63.1689 36.4964 64.3653C36.0317 65.5618 35.3693 66.7155 34.6696 67.5701C33.9699 68.4194 33.2382 68.9749 32.8749 69.2473C32.5064 69.5251 32.5064 69.5251 32.6079 70.0165C32.704 70.5132 32.8963 71.496 33.6067 72.7085C34.3171 73.921 35.5509 75.3524 36.7955 76.3513C38.0453 77.3554 39.3166 77.9163 40.6946 78.1727C42.078 78.429 43.579 78.381 45.0478 77.9056C46.5167 77.4356 47.9482 76.5329 49.0057 75.4486C50.0633 74.359 50.7417 73.077 51.2544 72.0782C51.7672 71.0794 52.1144 70.3636 52.2853 70.0058C52.4562 69.6479 52.4562 69.6479 52.2159 69.4823C51.9755 69.3168 51.4895 68.9856 50.8432 68.4034C50.2022 67.8265 49.4117 67.0093 48.8348 66.2028C48.2633 65.3962 47.9215 64.6004 47.6651 63.7992C47.4087 62.998 47.2431 62.1914 47.1737 61.1873C47.1042 60.1777 47.1256 58.9759 47.1416 58.3724C47.1523 57.7688 47.1523 57.7688 47.1523 57.7688C47.1523 57.7688 47.1523 57.7688 45.5499 57.2347C43.9475 56.6952 40.7427 55.6163 39.1457 55.0821C37.5433 54.5427 37.5433 54.5426 37.5593 54.6708C37.586 54.7883 37.618 55.0447 37.6127 56.0703Z" fill="#EEB17C"/>
<path fill-rule="evenodd" clip-rule="evenodd" d="M37.6125 56.0712C37.6019 56.9472 37.5538 58.3893 37.4363 59.7407C40.2351 63.4155 43.9847 65.4719 47.6382 63.6879C47.3978 62.9188 47.243 62.1389 47.1735 61.1775C47.1041 60.168 47.1254 58.9662 47.1415 58.3626C47.1522 57.759 47.1521 57.759 47.1521 57.759C47.1521 57.759 47.1521 57.759 45.5498 57.2249C43.9474 56.6854 40.7426 55.6065 39.1455 55.0724C37.5431 54.5329 37.5431 54.5329 37.5591 54.6611C37.5858 54.7893 37.6179 55.0457 37.6125 56.0712Z" fill="#E38C4B"/>
<path fill-rule="evenodd" clip-rule="evenodd" d="M43.3866 32.8359C51.1155 32.8359 54.6728 37.0663 54.9025 43.2729C55.1215 49.2285 52.2318 56.6956 48.3487 59.8417C36.304 69.5789 21.4444 32.8359 43.3866 32.8359Z" fill="#EEB17C"/>
<path fill-rule="evenodd" clip-rule="evenodd" d="M53.61 37.9468C54.4112 39.4638 54.8331 41.2638 54.9026 43.2721C55.0308 46.6532 54.1495 50.5203 52.6592 53.8052C52.3494 53.6931 51.9702 53.5435 51.5002 53.3299C50.3731 52.8118 48.744 51.9251 46.7731 50.4723C44.8021 49.0194 42.484 46.995 40.9243 45.1683C39.3647 43.3469 38.5742 41.7178 38.0721 40.7884C37.5753 39.859 37.367 39.6294 37.2068 39.0525C37.0465 38.4756 36.929 37.5516 36.913 36.5901C36.897 35.6928 36.9611 34.7688 37.4792 34.037C38.7825 33.4067 40.3528 33.0008 42.2223 32.8779C42.8632 33.0756 43.5576 33.3693 44.3802 33.7379C45.9826 34.4376 48.0657 35.399 50.5174 36.5154C51.5269 36.9747 52.6005 37.4608 53.61 37.9468Z" fill="#E38C4B"/>
<path fill-rule="evenodd" clip-rule="evenodd" d="M37.8049 24.7541C37.9918 23.3707 39.0173 22.2704 40.593 21.4425C42.1687 20.62 44.2946 20.0645 46.6074 20.0645C48.9202 20.0645 51.4199 20.6146 53.1291 21.4425C54.8383 22.2651 55.7624 23.3707 56.2111 24.7435C56.6597 26.1162 56.633 27.7506 56.7345 28.8776C56.836 30.0047 57.0657 30.6189 58.0966 31.3346C59.1274 32.045 60.9595 32.8516 62.3963 33.9198C63.8278 34.9934 64.8694 36.3234 65.2593 37.8511C65.6492 39.3733 65.3928 41.0932 64.7946 42.3752C64.1963 43.6571 63.2616 44.501 62.3002 45.1259C61.3387 45.7455 60.3559 46.1461 59.3411 46.2957C58.3262 46.4452 57.29 46.3598 56.3606 46.0874C55.4312 45.8096 54.6087 45.3503 53.9731 44.6612C53.3428 43.9776 52.8941 43.0695 52.6431 42.2042C52.392 41.3389 52.3386 40.5217 51.906 40.0784C51.4733 39.6351 50.6507 39.571 49.6466 39.5816C48.6424 39.5923 47.446 39.6831 46.3777 39.7312C45.3041 39.7739 44.3587 39.7739 43.5521 39.6671C42.7456 39.5603 42.0779 39.3413 41.4477 38.8499C40.8227 38.3585 40.2352 37.5893 39.8185 36.8629C39.4073 36.1418 39.1776 35.4635 39.0547 34.235C38.9372 33.0118 38.9212 31.2438 38.59 29.5293C38.2749 27.804 37.6179 26.1375 37.8049 24.7541Z" fill="#342446"/>
<path fill-rule="evenodd" clip-rule="evenodd" d="M40.5397 32.9148C40.4275 34.8002 39.8881 37.7486 38.4406 40.8626C36.9931 43.9713 34.6322 47.2562 33.4571 48.896C32.2767 50.5358 32.2767 50.5358 32.2767 50.5358C32.2767 50.5358 32.2767 50.5358 31.6731 49.3447C31.0695 48.1482 29.8677 45.766 29.6594 43.1274C29.4565 40.4887 30.247 37.5938 31.2511 35.2596C32.25 32.9254 33.4518 31.1628 34.9527 30.2761C36.4536 29.3895 38.2483 29.3895 39.3005 29.8061C40.3474 30.212 40.6572 31.0346 40.5397 32.9148Z" fill="#342446"/>
<path fill-rule="evenodd" clip-rule="evenodd" d="M43.7125 56.4708C43.9796 56.2892 44.5885 55.8939 45.3309 55.6375C46.0734 55.3812 46.944 55.2637 47.5155 55.3278C48.0871 55.3865 48.3541 55.6215 48.3862 55.8192C48.4182 56.0168 48.2153 56.1663 47.8627 56.193C47.5155 56.2144 47.0188 56.1129 46.5007 56.0809C45.9826 56.0488 45.4378 56.0862 44.9464 56.177C44.455 56.2678 44.0223 56.412 43.7659 56.5028C43.5149 56.6043 43.4455 56.6471 43.7125 56.4708Z" fill="#FEFEFE"/>
<path fill-rule="evenodd" clip-rule="evenodd" d="M22.78 16.4006C22.0162 15.6955 21.3645 15.7169 20.9906 15.9519C20.6167 16.1869 20.5313 16.6463 20.825 17.111C21.1188 17.581 21.7918 18.0617 22.593 18.5371C23.3996 19.0178 24.3289 19.4986 24.799 19.7389C25.2637 19.9793 25.2637 19.9793 25.2637 19.9793C25.2637 19.9793 25.2637 19.9793 24.831 19.2635C24.4037 18.5425 23.5384 17.111 22.78 16.4006Z" fill="#D7D8D8"/>
<path fill-rule="evenodd" clip-rule="evenodd" d="M26.3425 20.091C26.4707 19.1937 26.6043 18.291 26.8927 17.5646C27.1811 16.8328 27.6244 16.272 28.0197 16.0049C28.4203 15.7432 28.7675 15.7806 28.9972 15.9408C29.2268 16.0957 29.339 16.3681 29.2215 16.7153C29.1093 17.0571 28.7675 17.4684 28.3722 17.8423C27.9716 18.2162 27.5123 18.5634 27.1651 18.9319C26.8179 19.3005 26.5829 19.6958 26.3425 20.091Z" fill="#D7D8D8"/>
<path fill-rule="evenodd" clip-rule="evenodd" d="M23.9017 21.8899C23.2234 21.6976 22.545 21.5107 21.8133 21.3932C21.0762 21.2757 20.291 21.2276 19.7035 21.3985C19.1159 21.5695 18.7367 21.954 18.5978 22.3119C18.4589 22.6644 18.5604 22.9902 18.7687 23.1825C18.977 23.3748 19.2922 23.4336 19.6821 23.3802C20.0667 23.3214 20.526 23.1505 20.948 22.9582C21.3699 22.7606 21.7599 22.5469 22.0964 22.3974C22.4329 22.2478 22.716 22.157 22.9403 22.1143C23.1593 22.0662 23.3142 22.0662 23.4637 22.0341C23.6133 22.0074 23.7575 21.9487 23.9017 21.8899Z" fill="#D7D8D8"/>
<path fill-rule="evenodd" clip-rule="evenodd" d="M32.8748 48.6295C34.349 48.0206 36.1383 48.9714 36.8754 50.7447C37.6125 52.5233 37.0143 54.4569 35.5401 55.0711C34.0659 55.6801 32.2766 54.7293 31.5395 52.956C30.8024 51.1827 31.4006 49.2438 32.8748 48.6295Z" fill="#EEB17C"/>
<path fill-rule="evenodd" clip-rule="evenodd" d="M62.6795 0.0875597C62.1347 -0.0673387 61.6059 -0.0085854 61.1412 0.199726C56.4996 2.27216 62.7703 13.3073 64.1591 16.1756C65.0244 17.965 65.0244 17.965 65.0244 17.965C65.0244 17.965 65.0244 17.965 65.0831 17.4575C65.5211 13.6011 68.101 1.62052 62.6795 0.0875597Z" fill="#CB1F1A"/>
<path fill-rule="evenodd" clip-rule="evenodd" d="M65.6975 23.8124C66.8619 23.8124 67.8073 22.8617 67.8073 21.7026C67.8073 20.5435 66.8619 19.5928 65.6975 19.5928C64.5384 19.5928 63.5876 20.5435 63.5876 21.7026C63.5876 22.867 64.5331 23.8124 65.6975 23.8124Z" fill="#CB1F1A"/>
</svg>
