<svg width="132" height="36" viewBox="0 0 132 36" fill="none" xmlns="http://www.w3.org/2000/svg">
<path d="M50.5687 14.1546V25.638H48.8791V14.1546H45.2061V12.5454H54.2417V14.1546H50.5687ZM55.564 22.8951C55.564 23.334 55.7507 23.6997 56.1242 23.9923C56.4976 24.2848 56.9353 24.4311 57.4373 24.4311C58.1474 24.4311 58.781 24.169 59.3381 23.6448C59.8952 23.1206 60.1737 22.505 60.1737 21.798C59.6472 21.3835 58.9126 21.1763 57.9699 21.1763C57.2842 21.1763 56.7119 21.3408 56.2527 21.67C55.7936 21.9991 55.564 22.4075 55.564 22.8951ZM57.7495 16.3854C58.9983 16.3854 59.9839 16.7176 60.7063 17.382C61.4287 18.0464 61.7898 18.9576 61.7898 20.1157V25.638H60.1737V24.3946H60.1002C59.4024 25.4186 58.4719 25.9306 57.3087 25.9306C56.317 25.9306 55.4875 25.638 54.8202 25.0528C54.153 24.4677 53.8193 23.7363 53.8193 22.8586C53.8193 21.9321 54.1713 21.1946 54.8753 20.646C55.5793 20.0974 56.519 19.8231 57.6944 19.8231C58.6984 19.8231 59.5248 20.006 60.1737 20.3717V19.9877C60.1737 19.4026 59.9411 18.9058 59.4758 18.4974C59.0106 18.089 58.4657 17.8848 57.8413 17.8848C56.8986 17.8848 56.1517 18.281 55.6008 19.0734L54.1132 18.1408C54.9335 16.9705 56.1456 16.3854 57.7495 16.3854ZM65.3894 12.5454V25.638H63.6998V12.5454H65.3894ZM71.3949 25.9306C70.0726 25.9306 68.9829 25.4795 68.1258 24.5774C67.2688 23.6753 66.8403 22.5355 66.8403 21.158C66.8403 19.7926 67.2566 18.6559 68.0891 17.7477C68.9217 16.8395 69.9868 16.3854 71.2847 16.3854C72.6192 16.3854 73.6813 16.8151 74.471 17.6746C75.2607 18.534 75.6556 19.7378 75.6556 21.286L75.6372 21.4688H68.5666C68.5911 22.3466 68.8849 23.0536 69.4481 23.59C70.0113 24.1264 70.6847 24.3946 71.4683 24.3946C72.5457 24.3946 73.3905 23.8582 74.0027 22.7854L75.5087 23.5168C75.1046 24.2727 74.5445 24.8639 73.8282 25.2906C73.112 25.7172 72.3009 25.9306 71.3949 25.9306ZM68.6952 20.0791H73.8558C73.8068 19.4574 73.5528 18.9424 73.0936 18.534C72.6345 18.1256 72.0193 17.9214 71.2479 17.9214C70.6113 17.9214 70.0634 18.1165 69.6042 18.5066C69.1451 18.8967 68.8421 19.4208 68.6952 20.0791ZM77.1983 16.678H78.8144V17.9214H78.8879C79.145 17.4826 79.5398 17.1168 80.0724 16.8243C80.605 16.5317 81.159 16.3854 81.7345 16.3854C82.8364 16.3854 83.6842 16.6993 84.2781 17.3271C84.8719 17.9549 85.1688 18.8479 85.1688 20.006V25.638H83.4792V20.1157C83.4424 18.6528 82.7017 17.9214 81.257 17.9214C80.5836 17.9214 80.0204 18.1926 79.5674 18.7351C79.1144 19.2776 78.8879 19.9267 78.8879 20.6826V25.638H77.1983V16.678ZM90.2559 25.7843C89.5213 25.7843 88.9122 25.5587 88.4286 25.1077C87.945 24.6566 87.697 24.0288 87.6848 23.2243V18.214H86.1054V16.678H87.6848V13.9351H89.3744V16.678H91.5782V18.214H89.3744V22.6757C89.3744 23.273 89.4907 23.6784 89.7233 23.8917C89.956 24.105 90.2192 24.2117 90.5131 24.2117C90.6477 24.2117 90.7793 24.1965 90.9079 24.166C91.0365 24.1355 91.1558 24.0959 91.266 24.0471L91.7986 25.5466C91.3578 25.705 90.8436 25.7843 90.2559 25.7843Z" fill="#444F61"/>
<path d="M101.606 22.1455C101.606 23.2914 101.183 24.2118 100.338 24.9066C99.4814 25.5893 98.4407 25.9306 97.2164 25.9306C96.1267 25.9306 95.1656 25.6137 94.333 24.9798C93.5005 24.3459 92.925 23.4804 92.6067 22.3832L94.2228 21.7249C94.333 22.115 94.4861 22.4685 94.682 22.7855C94.8779 23.1025 95.1074 23.3737 95.3707 23.5992C95.6339 23.8247 95.9247 24.0015 96.243 24.1295C96.5613 24.2575 96.898 24.3215 97.2531 24.3215C98.0244 24.3215 98.655 24.1234 99.1447 23.7272C99.6344 23.331 99.8793 22.8038 99.8793 22.1455C99.8793 21.5969 99.6773 21.1276 99.2733 20.7375C98.8937 20.3596 98.1836 19.9939 97.1429 19.6404C96.09 19.2625 95.4349 19.0065 95.1778 18.8724C93.7821 18.1653 93.0842 17.123 93.0842 15.7455C93.0842 14.7824 93.4698 13.9596 94.2412 13.2769C95.0248 12.5943 95.9859 12.2529 97.1245 12.2529C98.1285 12.2529 98.9978 12.5089 99.7324 13.0209C100.467 13.5207 100.957 14.1485 101.202 14.9044L99.6222 15.5626C99.4753 15.075 99.1845 14.6697 98.7499 14.3466C98.3152 14.0236 97.7857 13.8621 97.1613 13.8621C96.5001 13.8621 95.943 14.0449 95.49 14.4106C95.037 14.752 94.8105 15.1969 94.8105 15.7455C94.8105 16.1966 94.988 16.5866 95.3431 16.9158C95.7349 17.2449 96.5858 17.635 97.8959 18.0861C99.2304 18.5371 100.182 19.0887 100.752 19.7409C101.321 20.3931 101.606 21.1946 101.606 22.1455ZM107.464 25.9306C106.13 25.9306 105.022 25.4796 104.14 24.5775C103.271 23.651 102.836 22.5112 102.836 21.1581C102.836 19.7805 103.271 18.6407 104.14 17.7386C105.022 16.8365 106.13 16.3855 107.464 16.3855C108.382 16.3855 109.184 16.6141 109.87 17.0712C110.556 17.5284 111.07 18.1592 111.413 18.9638L109.87 19.6038C109.392 18.4823 108.554 17.9215 107.354 17.9215C106.583 17.9215 105.915 18.2324 105.352 18.8541C104.801 19.4758 104.526 20.2438 104.526 21.1581C104.526 22.0724 104.801 22.8404 105.352 23.4621C105.915 24.0838 106.583 24.3946 107.354 24.3946C108.591 24.3946 109.46 23.8339 109.962 22.7124L111.468 23.3524C111.137 24.1569 110.62 24.7878 109.916 25.2449C109.212 25.7021 108.395 25.9306 107.464 25.9306ZM114.076 22.8952C114.076 23.3341 114.262 23.6998 114.636 23.9924C115.009 24.2849 115.447 24.4312 115.949 24.4312C116.659 24.4312 117.293 24.1691 117.85 23.6449C118.407 23.1207 118.685 22.5051 118.685 21.7981C118.159 21.3836 117.424 21.1764 116.481 21.1764C115.796 21.1764 115.223 21.3409 114.764 21.6701C114.305 21.9992 114.076 22.4076 114.076 22.8952ZM116.261 16.3855C117.51 16.3855 118.496 16.7177 119.218 17.3821C119.94 18.0465 120.301 18.9577 120.301 20.1158V25.6381H118.685V24.3946H118.612C117.914 25.4187 116.983 25.9306 115.82 25.9306C114.829 25.9306 113.999 25.6381 113.332 25.0529C112.665 24.4678 112.331 23.7364 112.331 22.8586C112.331 21.9322 112.683 21.1946 113.387 20.6461C114.091 20.0975 115.031 19.8232 116.206 19.8232C117.21 19.8232 118.036 20.0061 118.685 20.3718V19.9878C118.685 19.4026 118.453 18.9059 117.987 18.4975C117.522 18.0891 116.977 17.8849 116.353 17.8849C115.41 17.8849 114.663 18.2811 114.112 19.0735L112.625 18.1409C113.445 16.9706 114.657 16.3855 116.261 16.3855ZM122.211 16.6781H123.828V17.9215H123.901C124.158 17.4826 124.553 17.1169 125.086 16.8244C125.618 16.5318 126.172 16.3855 126.748 16.3855C127.85 16.3855 128.697 16.6994 129.291 17.3272C129.885 17.955 130.182 18.848 130.182 20.0061V25.6381H128.492V20.1158C128.456 18.6529 127.715 17.9215 126.27 17.9215C125.597 17.9215 125.034 18.1927 124.581 18.7352C124.128 19.2777 123.901 19.9268 123.901 20.6826V25.6381H122.211V16.6781Z" fill="#5D8AF2"/>
<path fill-rule="evenodd" clip-rule="evenodd" d="M18.5436 24.8823L18.5431 30.148H17.0487L17.0495 34.279C17.0495 35.122 16.3784 35.8158 15.5213 35.8945L15.3586 35.9019C14.4246 35.9019 13.7595 35.1746 13.7595 34.279L13.759 30.148H17.0487L17.0495 24.8823H18.5436ZM32.1391 10.7196C34.0409 10.7196 35.5826 12.2547 35.5826 14.1482V26.7196C35.5826 28.6132 34.0409 30.1482 32.1391 30.1482L21.5941 30.148L21.5949 34.4315C21.5949 36.3155 18.7257 36.3726 18.5519 34.6028L18.5436 34.4315L18.5431 30.148H21.5941L21.5949 28.4597L21.7241 17.9353C21.7254 16.9308 21.7267 16.0332 21.7267 15.4089C22.946 17.3815 23.3488 19.7246 23.6262 22.0567C23.8551 23.9626 26.9083 23.986 26.6794 22.058C25.8687 13.0645 21.528 11.2706 21.528 11.2706C21.528 11.2706 21.0331 10.9769 20.2044 10.7197L32.1391 10.7196ZM15.3267 10.7192C14.5479 10.9699 13.7361 11.3635 12.9167 11.9519C10.0536 14.5249 9.3925 18.4527 8.93993 22.2465C8.71102 24.1744 11.7649 24.1511 11.9918 22.2465C12.2621 19.9824 12.6477 17.7079 13.7857 15.7709L13.7805 17.9566L13.7595 28.4604L13.759 30.148L3.44348 30.1482C1.5417 30.1482 0 28.6132 0 26.7196V14.1482C0 12.2547 1.5417 10.7196 3.44348 10.7196L15.3267 10.7192Z" fill="#5E89F2"/>
<path d="M17.7912 9.57659C19.376 9.57659 20.6608 8.2974 20.6608 6.71945C20.6608 5.14149 19.376 3.8623 17.7912 3.8623C16.2064 3.8623 14.9216 5.14149 14.9216 6.71945C14.9216 8.2974 16.2064 9.57659 17.7912 9.57659Z" fill="#5E89F2"/>
<path d="M21.1574 16.5578L19.4271 15.0474C19.3733 15.0005 19.2781 15.0005 19.2243 15.0474L18.8492 15.3749C18.7931 15.4238 18.7931 15.5031 18.8492 15.552L20.1029 16.6463L18.8492 17.7408C18.7932 17.7897 18.7932 17.869 18.8492 17.9179L19.2243 18.2454C19.2512 18.2688 19.2878 18.2821 19.3258 18.2821C19.3637 18.2821 19.4003 18.2688 19.4272 18.2454L21.1574 16.735C21.2134 16.6861 21.2134 16.6067 21.1574 16.5578Z" fill="#5E89F2"/>
<path d="M16.7698 17.7407L15.5163 16.6463L16.77 15.552C16.797 15.5285 16.8121 15.4967 16.8121 15.4634C16.8121 15.4302 16.797 15.3984 16.77 15.3749L16.3949 15.0474C16.368 15.024 16.3315 15.0107 16.2935 15.0107C16.2555 15.0107 16.2189 15.024 16.192 15.0474L14.4617 16.5577C14.4057 16.6066 14.4057 16.6859 14.4617 16.7349L16.192 18.2452C16.2189 18.2687 16.2554 18.2819 16.2934 18.2819C16.3314 18.2819 16.368 18.2687 16.3949 18.2452L16.77 17.9177C16.826 17.8689 16.826 17.7896 16.7698 17.7407Z" fill="#5E89F2"/>
<path d="M18.7934 14.5393C18.7752 14.5101 18.7445 14.4884 18.708 14.479L18.4039 14.4007C18.328 14.381 18.2481 14.419 18.2257 14.4854L16.814 18.6587C16.8032 18.6906 16.8074 18.7248 16.8255 18.7539C16.8437 18.7832 16.8744 18.8048 16.9109 18.8143L17.215 18.8926C17.2286 18.8961 17.2423 18.8978 17.2557 18.8978C17.3176 18.8978 17.3748 18.8625 17.3932 18.8079L18.8049 14.6345C18.8157 14.6026 18.8116 14.5684 18.7934 14.5393Z" fill="#5E89F2"/>
</svg>
