<svg width="341" height="179" viewBox="0 0 341 179" fill="none" xmlns="http://www.w3.org/2000/svg">
<g clip-path="url(#clip0_138_2428)">
<path d="M21.1116 178.573C21.1116 178.573 -18.5682 136.061 14.4046 90.0213C43.6558 49.1791 77.7665 51.9714 102.787 68.5514C113.443 75.6056 144.167 69.4199 170.326 27.8696C205.99 -28.8044 329.621 5.57144 307.077 92.7601C296.166 134.952 340.277 136.488 317.8 178.666L21.1116 178.573Z" fill="#F0F9FF"/>
<path d="M222.831 158.479C222.831 158.479 226.03 154.751 223.031 152.386C223.031 152.386 220.836 151.064 219.042 151.171C219.042 151.171 221.572 155.419 220.755 155.833C219.939 156.261 218.265 150.903 218.265 150.903C218.265 150.903 213.272 150.422 211.666 151.197C211.666 151.197 215.936 154.684 215.039 154.898C214.142 155.112 209.524 151.678 209.524 151.678C209.524 151.678 204.878 152.467 205.119 155.299C205.374 158.131 206.967 159 207.676 158.933C208.386 158.866 212.496 157.29 212.589 157.864C212.683 158.439 210.206 160.322 208.466 160.403C208.466 160.403 211.746 164.01 213.915 162.968C216.083 161.926 216.284 160.282 217.636 159.654C218.988 159.04 220.153 159.04 219.591 159.668C219.029 160.296 216.579 160.91 215.802 162.286C215.026 163.662 214.33 164.584 216.579 164.237C218.828 163.903 222.496 162.26 222.656 160.362C222.831 158.479 222.831 158.479 222.831 158.479Z" fill="#599DAD"/>
<path d="M207.422 155.353C207.422 155.353 220.046 154.872 222.831 158.466C222.831 158.466 223.446 160.31 225.347 161.994L225.642 162.795C225.642 162.795 223.46 160.497 222.67 160.35C222.67 160.364 223.888 155.901 207.422 155.353Z" fill="#599DAD"/>
<path d="M225.347 161.994C225.347 161.994 228.052 163.998 228.239 167.566L227.744 167.606C227.744 167.606 226.874 163.905 225.321 162.462C223.754 161.032 225.347 161.994 225.347 161.994Z" fill="#599DAD"/>
<path d="M234.022 153.79C234.022 153.79 228.935 150.944 231.305 147.083C231.305 147.083 233.206 144.705 235.241 144.104C235.241 144.104 234.156 149.862 235.241 149.996C236.325 150.129 235.99 143.489 235.99 143.489C235.99 143.489 241.358 140.911 243.46 141.111C243.46 141.111 240.127 146.736 241.225 146.602C242.309 146.469 246.044 140.777 246.044 140.777C246.044 140.777 251.546 139.762 252.43 143.008C253.313 146.255 251.881 147.885 251.078 148.085C250.261 148.286 245.04 148.219 245.174 148.9C245.308 149.582 248.842 150.664 250.81 150.049C250.81 150.049 248.641 155.407 245.79 155.126C242.938 154.859 242.055 153.095 240.288 152.962C238.52 152.828 237.235 153.296 238.119 153.777C239.002 154.258 241.988 153.937 243.42 155.14C244.853 156.355 246.004 157.09 243.353 157.638C240.703 158.186 235.95 157.838 235 155.808C234.022 153.79 234.022 153.79 234.022 153.79Z" fill="#6BB7BF"/>
<path d="M249.913 144.023C249.913 144.023 235.655 148.633 234.022 153.776C234.022 153.776 234.089 156.074 232.67 158.72V159.735C232.67 159.735 234.169 156.275 234.973 155.807C234.973 155.821 231.786 151.345 249.913 144.023Z" fill="#6BB7BF"/>
<path d="M232.67 158.733C232.67 158.733 230.475 162.059 231.72 166.121L232.282 165.974C232.282 165.974 231.733 161.512 232.884 159.254C234.036 157.009 232.67 158.733 232.67 158.733Z" fill="#6BB7BF"/>
<path d="M225.923 149.862C225.923 149.862 232.643 146.108 229.497 141.018C229.497 141.018 226.994 137.892 224.303 137.09C224.303 137.09 225.736 144.679 224.303 144.866C222.871 145.039 223.312 136.288 223.312 136.288C223.312 136.288 216.244 132.895 213.459 133.162C213.459 133.162 217.85 140.577 216.418 140.403C214.986 140.23 210.059 132.721 210.059 132.721C210.059 132.721 202.803 131.385 201.639 135.674C200.474 139.963 202.348 142.1 203.432 142.381C204.517 142.661 211.398 142.554 211.224 143.45C211.05 144.345 206.391 145.774 203.794 144.973C203.794 144.973 206.659 152.027 210.421 151.679C214.182 151.332 215.347 148.994 217.676 148.82C220.006 148.647 221.706 149.261 220.541 149.889C219.377 150.517 215.441 150.09 213.553 151.693C211.679 153.283 210.153 154.271 213.647 154.979C217.141 155.687 223.406 155.247 224.651 152.561C225.923 149.862 225.923 149.862 225.923 149.862Z" fill="#86D1CD"/>
<path d="M204.972 136.998C204.972 136.998 223.768 143.077 225.923 149.864C225.923 149.864 225.829 152.897 227.717 156.384V157.72C227.717 157.72 225.749 153.164 224.678 152.536C224.665 152.549 228.882 146.644 204.972 136.998Z" fill="#6BB7BF"/>
<path d="M227.717 156.383C227.717 156.383 230.622 160.779 228.962 166.123L228.212 165.922C228.212 165.922 228.935 160.03 227.423 157.064C225.896 154.112 227.717 156.383 227.717 156.383Z" fill="#6BB7BF"/>
<path d="M226.284 177.717C233.554 177.717 239.431 171.839 239.431 164.598H213.125C213.125 171.852 219.015 177.717 226.284 177.717Z" fill="#EE9849"/>
<path d="M229.511 177.625C228.975 177.692 228.426 177.732 227.877 177.732C220.608 177.732 214.731 171.854 214.731 164.612H217.998C217.998 171.292 223.018 176.824 229.511 177.625Z" fill="#F3B175"/>
<path d="M239.618 178.385H212.951C212.951 177.49 213.674 176.769 214.571 176.769H237.998C238.882 176.769 239.618 177.49 239.618 178.385Z" fill="#EE9849"/>
<path d="M239.725 164.598H212.696V164.998H239.725V164.598Z" fill="#EE9849"/>
<path d="M46.3204 50.1935C46.2802 49.9931 45.7983 47.7887 42.3979 48.1628C42.3979 48.1628 44.0847 48.1227 44.4863 48.8041C44.4863 48.8041 43.2279 48.0692 42.3444 48.4834C41.4608 48.9109 41.1529 50.5943 41.2332 51.1287C41.3001 51.6631 42.0632 53.2931 42.679 53.3599C42.9066 53.3866 43.161 53.3332 43.3886 53.253C43.2681 53.5202 43.1476 53.8141 43.0539 54.1348C42.1034 57.1007 43.8973 59.5991 44.995 59.1315C45.7046 58.8376 46.0928 60.0533 46.0928 60.0533L52.3848 53.2664C52.358 53.2797 48.9577 48.2563 46.3204 50.1935Z" fill="#2C3A64"/>
<path d="M54.5133 131.945L52.9871 132.519C52.9871 132.519 46.347 123.328 45.5304 115.245C45.3832 113.802 45.4367 112.399 45.7446 111.116C45.7446 111.116 45.6777 110.742 45.5706 110.088C45.517 109.78 45.4501 109.42 45.3832 108.992C45.169 107.763 44.8744 106.066 44.5264 104.142C43.7499 99.7202 42.7325 94.0554 41.9426 89.9004L42.3576 89.7668L46.8156 88.3373L47.7393 85.4114L51.0593 84.543C51.0593 84.543 51.7956 85.9859 52.465 92.8263C52.5855 93.7214 52.6926 94.7101 52.7863 95.7789C53.0407 99.0522 53.0674 103.114 52.465 107.763C52.3177 108.952 52.1169 110.181 51.876 111.437C51.7019 112.359 51.6752 113.615 51.7421 115.071C52.0768 121.658 54.5133 131.945 54.5133 131.945Z" fill="#2B478B"/>
<path d="M52.7729 95.7649L45.5706 110.06C45.517 109.753 45.4501 109.392 45.3832 108.965C45.169 107.736 44.8744 106.039 44.5264 104.115C43.7499 99.6928 42.7325 94.0281 41.9426 89.8731L42.3576 89.7395L46.8156 88.3099L47.7393 85.384L51.0593 84.5156C51.0593 84.5156 51.7956 85.9585 52.465 92.799C52.5721 93.7074 52.6792 94.6961 52.7729 95.7649Z" fill="#233862"/>
<path d="M49.6002 86.3597L49.4395 84.9302C46.6416 85.665 39.1715 82.8594 39.1715 82.8594C39.1715 82.8594 36.4539 85.2375 36.8153 90.9289C36.9894 93.7079 37.3107 105.518 37.632 109.019C37.7524 110.288 37.8595 111.183 37.8997 111.544C37.9131 111.651 37.8729 111.757 37.8194 111.851C37.3374 112.679 36.9224 113.534 36.6011 114.416C33.348 123.06 37.0965 133.695 37.0965 133.695L38.0737 133.307C38.0737 133.307 40.2023 121.457 41.9427 116.233C42.2372 115.351 42.5183 114.643 42.7727 114.229C43.5224 113.013 44.2319 111.036 44.8611 108.671C46.0659 104.209 47.0298 98.4106 47.6724 93.9216C47.7661 93.935 49.6002 86.3597 49.6002 86.3597Z" fill="#2B478B"/>
<path d="M50.5105 74.6294C50.5373 74.7095 50.5507 74.7763 50.5909 74.8565C51.6886 77.9293 53.6298 81.1491 54.9551 82.3248C55.8253 83.0997 58.2216 83.9147 60.2564 84.4892C61.6086 84.89 62.8134 85.1706 63.3087 85.2908C63.4694 85.3309 63.5631 85.3442 63.5631 85.3442L64.0183 84.0082C64.0183 84.0082 62.9607 83.3536 61.6755 82.4852C59.8816 81.2694 57.6459 79.6662 57.2175 78.9848C56.2269 77.3816 55.5709 72.5051 54.7141 69.2051C54.674 69.0314 54.6338 68.8577 54.5803 68.6841C54.5535 68.5638 54.5133 68.4436 54.4865 68.3233C54.4732 68.2966 54.4732 68.2565 54.4598 68.2298C54.4196 68.0962 54.3794 67.9626 54.3393 67.8557C54.3393 67.8424 54.3259 67.829 54.3259 67.8156C54.1519 67.2679 53.7502 66.5063 53.7502 66.5063C53.4959 66.1189 53.2281 65.9319 52.9336 65.9987C52.9336 65.9987 52.532 66.1189 52.0233 66.4663C51.9162 66.5331 51.8091 66.6266 51.6886 66.7201C51.6083 66.7602 51.5547 66.827 51.4878 66.8804C51.0862 67.2412 50.6578 67.7355 50.3365 68.4169C50.0955 68.9245 49.8947 69.5258 49.801 70.2472C49.627 71.4363 49.9483 72.9994 50.5105 74.6294Z" fill="#FFB27D"/>
<path d="M52.0232 69.0308C51.2066 69.5519 50.2026 69.9794 48.9442 70.2332C44.2318 71.1818 42.5451 67.1738 41.9426 64.4483C42.5986 64.1009 43.201 64.0341 43.5491 64.0074C43.8838 63.9807 44.2452 63.954 44.5398 63.954C45.0752 63.5665 45.9053 61.9366 46.1596 59.3848L46.3738 59.4516L50.0419 60.5605C50.0419 60.5605 49.8411 61.7228 49.7206 62.8317C49.6269 63.7001 49.6001 64.5284 49.7608 64.7288C50.0419 64.7956 50.216 64.8491 50.216 64.8491C50.2695 64.9426 51.2869 66.7329 52.0232 69.0308Z" fill="#FFB27D"/>
<path d="M50.0419 60.561C50.0419 60.561 49.8411 61.7234 49.7206 62.8323C47.6322 62.5651 46.7218 60.5477 46.3738 59.4521L50.0419 60.561Z" fill="#ED985F"/>
<path d="M50.6308 61.6831C50.6308 61.6831 45.6641 61.2689 45.972 58.1961C46.2799 55.1232 45.8381 52.9856 49.0243 53.1192C52.2105 53.2528 52.7058 54.482 52.853 55.5374C53.0003 56.5929 51.9293 61.7098 50.6308 61.6831Z" fill="#FFB27D"/>
<path d="M54.5668 68.6969C54.54 68.5767 54.4999 68.4564 54.4731 68.3362C54.4597 68.3095 54.4597 68.2694 54.4463 68.2427C54.4062 68.1091 54.366 67.9755 54.3258 67.8686C54.3258 67.8552 54.3125 67.8419 54.3125 67.8285C54.1384 67.2808 53.7368 66.5192 53.7368 66.5192C53.5628 66.2387 53.3753 65.9982 53.1745 65.9046C53.0139 65.8111 52.1571 65.3034 50.2293 64.8492C50.2829 64.9561 51.5948 67.9621 51.3806 68.6836C51.1531 69.405 44.754 68.0957 44.3523 67.6415C44.031 67.2807 43.7097 65.1565 43.6027 64.3281C43.5759 64.1277 43.5625 63.9941 43.5625 63.9941C43.5625 63.9941 41.2465 64.0209 40.0416 64.7156C40.0416 64.7156 40.711 65.731 41.0591 66.9067C41.0992 67.0135 41.126 67.1338 41.1528 67.2407C41.2063 67.4812 41.2599 67.7216 41.2733 67.9621C41.3 68.2828 41.1796 68.5767 40.9654 68.884C40.7646 69.1645 40.4834 69.4585 40.1621 69.7791C39.9479 69.9795 39.7203 70.1933 39.4928 70.4338C39.6802 71.8499 40.122 74.1746 40.2157 76.6997C40.2424 77.341 40.122 77.9689 39.8676 78.5568C39.7739 78.7839 39.64 79.011 39.5062 79.2248C38.3816 80.9215 36.4405 84.2482 37.2303 86.0385C37.5248 87.7887 52.6926 87.949 52.1036 86.0652C52.1036 86.0652 52.7729 75.0163 53.6029 72.2507C53.6297 72.1439 53.6565 72.0503 53.6832 71.9568C53.9108 70.9014 53.71 69.886 53.4557 68.9909C53.8305 68.8305 54.2723 68.737 54.5668 68.6969Z" fill="#FF9843"/>
<path d="M52.8801 53.8141C52.2107 52.8121 51.6083 52.959 51.2602 53.1995C48.7032 51.4493 46.7353 53.4667 46.7353 53.4667C46.1864 55.6444 44.4595 56.7533 44.4595 56.7533C44.4595 56.7533 45.3029 57.3946 47.4448 57.074C48.1008 56.9804 48.7032 56.5796 49.2521 56.0853C48.2748 57.408 47.0164 58.3165 47.0164 58.3165C49.6136 57.4213 50.9657 54.0679 51.0996 53.7072C51.3807 54.0145 51.9162 54.6558 52.0367 55.257C52.2107 56.0719 52.1571 57.6885 52.6257 57.6885C52.6257 57.6752 53.8841 55.3104 52.8801 53.8141Z" fill="#2C3A64"/>
<path d="M47.5651 83.0593C44.6333 83.4467 41.7149 80.7747 39.8541 78.5702C40.1085 77.9824 40.2289 77.3545 40.2022 76.7132C40.1084 74.1881 39.6667 71.8634 39.4792 70.4472C39.7068 70.2201 39.9344 70.0064 40.1486 69.7926C40.4699 69.472 40.751 69.1914 40.9518 68.8975C43.9372 72.5982 51.5412 82.5249 47.5651 83.0593Z" fill="#ED7D2B"/>
<path d="M68.1682 85.9723C67.5122 86.1593 66.5215 86.9743 65.1694 86.2528C64.2056 85.7452 63.1747 85.3444 62.666 85.1573C62.4652 85.0905 62.3447 85.0504 62.3447 85.0504L63.0944 83.4873C63.0944 83.4873 63.1078 83.5007 63.1613 83.514C63.5094 83.6343 65.3167 84.2488 66.2003 84.1553C67.1909 84.0484 68.6903 85.3978 68.6903 85.3978C68.6903 85.3978 68.8242 85.7852 68.1682 85.9723Z" fill="#FFB27D"/>
<path d="M42.7592 134.497H35.0615C35.0615 134.497 34.8741 133.321 35.2757 132.439C35.6639 131.584 36.2664 131.197 36.1191 130.168C36.6144 130.676 37.4043 131.237 38.5154 131.09C38.6493 131.317 39.399 132.493 39.8541 132.813C40.3629 133.174 42.5985 133.04 42.7592 134.497Z" fill="#233862"/>
<path d="M59.2925 134.496H51.5948C51.5948 134.496 51.3003 133.267 51.809 132.439C52.2508 131.704 52.0901 131.276 51.7555 130.675C52.1035 130.822 52.5587 130.942 53.054 130.915C53.4422 130.889 53.8439 130.715 54.2053 130.515C54.54 130.889 55.9591 132.492 56.4008 132.813C56.8962 133.173 59.1318 133.04 59.2925 134.496Z" fill="#233862"/>
<path d="M49.4526 59.9063C49.4526 59.9063 49.5196 60.3205 50.5236 60.3205C50.5236 60.3205 51.367 60.3205 51.367 59.8796C51.367 59.8662 50.5772 59.5055 49.4526 59.9063Z" fill="white"/>
<path d="M57.7395 84.0617C57.7395 84.0617 58.3955 84.035 58.8774 83.7811C59.3594 83.5273 60.9123 83.9414 60.765 84.1418C60.6178 84.3422 59.7342 84.0884 59.6539 84.2086C59.5736 84.3289 59.2523 84.4758 59.2523 84.4758L57.7395 84.0617Z" fill="#FFB27D"/>
<path d="M97.4193 107.99H66.9499C62.5723 107.99 59.0247 104.45 59.0247 100.081V69.6729C59.0247 65.3041 62.5723 61.7637 66.9499 61.7637H97.4193C101.797 61.7637 105.345 65.3041 105.345 69.6729V100.081C105.331 104.45 101.797 107.99 97.4193 107.99Z" fill="#E3F0FF"/>
<path d="M99.3338 73.1464V95.7118C99.3338 96.3798 99.2267 97.0211 99.0125 97.6223C98.303 99.6797 96.469 101.216 94.2467 101.523C93.9923 101.564 93.7246 101.577 93.4568 101.577H70.8458C68.3022 101.577 66.1334 99.9603 65.3168 97.7024C65.0892 97.0879 64.9688 96.4198 64.9688 95.7251V73.1464C64.9688 69.9132 67.5927 67.2812 70.8458 67.2812H93.4568C96.7099 67.2812 99.3338 69.9132 99.3338 73.1464Z" fill="#D2E4FF"/>
<path d="M79.1994 82.846C79.1994 82.846 79.0789 86.3731 78.6371 87.963L75.0493 90.448L88.5437 92.4653L85.3307 88.0298C85.3307 88.0298 84.3535 83.2869 84.8622 81.5367C85.3709 79.7865 79.1994 82.846 79.1994 82.846Z" fill="#FFB27D"/>
<path d="M79.186 83.3252C79.186 83.3252 80.257 85.8903 82.2651 85.8369C84.2732 85.7835 84.7284 83.5122 84.7284 83.5122L79.186 83.3252Z" fill="#ED985F"/>
<path d="M77.9813 81.2554C77.9813 81.2554 77.3253 78.0222 76.8835 77.0469C76.4284 76.0716 76.0535 71.6894 81.0737 71.4757C81.0737 71.4757 83.0015 71.7028 84.0591 71.0615C84.0591 71.0615 84.0591 71.7028 83.7913 71.9299C83.7913 71.9299 85.5317 71.5158 86.8838 73.0255C88.2493 74.5352 85.9735 79.8125 86.094 81.055L77.9813 81.2554Z" fill="#B64C41"/>
<path d="M82.0375 84.8502C80.5783 84.8235 77.9009 82.8863 77.9009 80.4948V76.7539C77.9009 75.8722 78.5167 75.1641 79.2664 75.1641H84.8221C85.5718 75.1641 86.1876 75.8855 86.1876 76.7539V80.281C86.1742 82.7927 83.6975 84.8769 82.0375 84.8502Z" fill="#FFB27D"/>
<path d="M77.8876 78.743C77.8876 78.743 77.901 76.4985 79.6815 76.1511C81.462 75.8038 85.4648 77.2467 86.027 75.6034C86.5893 73.9601 78.3026 73.9868 77.8876 75.0423C77.4726 76.0843 77.8876 78.743 77.8876 78.743Z" fill="#B64C41"/>
<path d="M90.4983 89.0314C90.4983 89.0314 90.4983 89.018 90.4983 89.0314C90.11 88.8844 89.9226 88.8711 89.9226 88.8711C88.45 88.497 87.0711 88.2431 85.7726 88.0828C85.6253 88.0695 85.4781 88.0427 85.3308 88.0294C84.4472 89.2051 83.7377 89.7395 82.988 90.1136C82.8274 90.1937 82.6533 90.2739 82.4793 90.3407C82.332 90.4075 82.1848 90.4609 82.0241 90.5277C81.8233 90.501 81.6359 90.4476 81.4485 90.3808C81.3414 90.3407 81.2343 90.3006 81.1272 90.2472C79.6948 89.5792 78.6238 87.9893 78.6238 87.9492C78.423 87.9759 78.2355 87.9893 78.0481 88.016C76.3613 88.2298 75.21 88.5371 74.7147 88.6974C74.6076 88.7108 70.9395 89.2184 65.3035 97.7022C66.1201 99.9601 68.2888 101.577 70.8324 101.577H93.4435C93.7112 101.577 93.979 101.563 94.2333 101.523C96.4556 101.229 98.2763 99.6795 98.9992 97.622C94.7554 91.1824 91.7165 89.4723 90.4983 89.0314Z" fill="#2F5196"/>
<path d="M78.8246 87.0938C78.8246 87.0938 78.2222 87.3476 78.0615 88.0156C78.0615 88.0156 80.4712 90.4872 82.0375 90.5273L78.8246 87.0938Z" fill="#EE9849"/>
<path d="M82.0376 90.5265L85.1434 86.9727C85.1434 86.9727 85.786 87.3868 85.7726 88.0816C85.7726 88.0816 83.3629 90.62 82.0376 90.5265Z" fill="#EE9849"/>
<path d="M83.4162 101.577H80.3237C80.6852 97.4222 81.1404 93.3072 81.3546 91.3833C81.3947 90.9959 81.4349 90.6886 81.4483 90.5016C81.4483 90.4749 81.4483 90.4348 81.4617 90.4081C81.4617 90.3947 81.4617 90.3813 81.4617 90.368C81.475 90.2878 81.475 90.2477 81.475 90.2477H81.7829L82.2783 90.2344H82.4791C82.4791 90.2344 82.4791 90.2611 82.4925 90.3279C82.4925 90.3546 82.4925 90.4081 82.5059 90.4615C82.5059 90.5016 82.5059 90.5417 82.5192 90.5951C82.5326 90.8222 82.5728 91.1562 82.5996 91.5704C82.7602 93.5878 83.0949 97.5825 83.4162 101.577Z" fill="#EE9849"/>
<path d="M80.8463 89.2711C80.8463 89.2711 82.2787 89.1241 83.1489 89.2177C83.3229 89.231 83.4166 89.4181 83.3363 89.5784C83.0953 90.0193 82.6 90.7808 82.0779 90.7808C81.3416 90.7674 80.2037 89.3112 80.8463 89.2711Z" fill="#E58638"/>
<path d="M62.2646 85.7184C61.863 86.2662 60.7786 87.1079 59.3997 86.4666C58.409 86.0124 57.3515 85.6784 56.8293 85.518C56.6285 85.4646 56.5081 85.4245 56.5081 85.4245L57.164 83.8213C57.164 83.8213 57.1774 83.8346 57.231 83.848C57.5924 83.9415 59.3729 83.9549 60.3502 84.4759C61.4881 85.0905 62.7331 85.0638 62.2646 85.7184Z" fill="#FFB27D"/>
<path d="M57.7932 84.0609L57.5121 85.5706C57.5121 85.5706 57.0033 85.5172 56.1733 85.437C55.9324 85.4103 55.7851 85.3836 55.7851 85.3836C55.1291 85.3168 54.3393 85.2099 53.4825 85.0897H53.4691C51.9965 84.8759 50.3499 84.5953 48.9442 84.248C47.9536 83.9941 47.0968 83.7135 46.5077 83.4063C46.4408 83.3795 46.4006 83.3395 46.3337 83.2994C44.9013 82.4443 43.0538 79.7055 41.5277 76.7262C41.3135 76.312 41.1127 75.8978 40.9252 75.497C40.2157 74.0007 39.6267 72.5311 39.2251 71.2351C38.9841 70.4736 38.8101 69.7655 38.7297 69.1776C38.703 68.9772 38.6762 68.7768 38.6628 68.5898C38.6494 68.4829 38.6494 68.376 38.6494 68.2825C39.2251 67.7748 40.5638 66.8262 42.3845 66.9331C42.4246 66.9999 42.4648 67.0667 42.4916 67.1335C43.2814 68.5631 44.1382 70.4201 44.9414 72.2772C45.3966 73.2926 45.825 74.308 46.2534 75.2432C46.4943 75.8177 46.7487 76.3521 46.9763 76.833C47.4181 77.7683 47.8063 78.5164 48.141 78.9974C48.3552 79.3047 48.9174 79.7055 49.6671 80.1464C50.9657 80.9213 52.8399 81.8431 54.4731 82.5779C55.1559 82.8852 55.7851 83.1658 56.3206 83.4063C57.2309 83.8204 57.7932 84.0609 57.7932 84.0609Z" fill="#FFB27D"/>
<path d="M42.5317 67.16C40.2559 66.7458 38.703 68.6162 38.703 68.6162C38.4353 65.2896 40.0685 64.6883 40.0685 64.6883C40.6977 64.3543 41.5679 65.4365 42.5317 67.16Z" fill="#FF9843"/>
<path d="M295.069 116.686H260.717C260.141 116.686 259.673 116.218 259.673 115.644V110.968C259.673 110.393 260.141 109.926 260.717 109.926H295.069C295.644 109.926 296.113 110.393 296.113 110.968V115.644C296.113 116.218 295.644 116.686 295.069 116.686Z" fill="#EE9849"/>
<path d="M268.495 116.686L268.066 120.641L261.801 177.969C261.788 178.17 261.641 178.317 261.48 178.317C261.159 178.317 260.904 177.983 260.944 177.595L265.911 118.891L266.098 116.673H268.495V116.686Z" fill="#EFCBAB"/>
<path d="M268.495 116.687L268.066 120.641C267.772 119.065 265.898 118.904 265.898 118.904L266.085 116.687H268.495Z" fill="#CCA07F"/>
<path d="M294.305 178.315C294.131 178.315 293.997 178.168 293.984 177.968L287.706 120.639L287.438 118.168L287.277 116.685H289.687L289.874 118.902L290.021 120.639L294.841 177.607C294.881 177.981 294.627 178.315 294.305 178.315Z" fill="#EFCBAB"/>
<path d="M290.021 120.639C289.406 118.755 287.438 118.168 287.438 118.168L287.277 116.685H289.687L289.874 118.902L290.021 120.639Z" fill="#CCA07F"/>
<path d="M61.4741 138.839H26.7074C26.2522 138.839 25.864 138.465 25.864 137.997V135.339C25.864 134.885 26.2389 134.497 26.7074 134.497H61.4875C61.9426 134.497 62.3309 134.871 62.3309 135.339V137.997C62.3175 138.465 61.9293 138.839 61.4741 138.839Z" fill="#EE9849"/>
<path d="M34.6996 138.839L34.2712 141.377L27.9926 178.091C27.9792 178.225 27.8319 178.318 27.6713 178.318C27.35 178.318 27.0956 178.104 27.1358 177.864L32.1024 140.255L32.2899 138.839H34.6996Z" fill="#EFCBAB"/>
<path d="M34.6997 138.84L34.2713 141.378C33.9768 140.363 32.1025 140.256 32.1025 140.256L32.29 138.84H34.6997Z" fill="#CCA07F"/>
<path d="M60.5103 178.318C60.3362 178.318 60.2024 178.225 60.189 178.091L53.9238 141.364L53.656 139.787L53.4954 138.839H55.9051L56.0925 140.255L56.2397 141.364L61.0592 177.851C61.0859 178.104 60.8316 178.318 60.5103 178.318Z" fill="#EFCBAB"/>
<path d="M56.2263 141.365C55.6105 140.163 53.6426 139.788 53.6426 139.788L53.4819 138.84H55.8916L56.0791 140.256L56.2263 141.365Z" fill="#CCA07F"/>
<path d="M114.38 52.012H83.5898C79.172 52.012 75.5842 48.4314 75.5842 44.0226V13.2941C75.5842 8.88522 79.172 5.30469 83.5898 5.30469H114.38C118.798 5.30469 122.386 8.88522 122.386 13.2941V44.0226C122.386 48.4448 118.798 52.012 114.38 52.012Z" fill="#E3F0FF"/>
<path d="M116.322 16.8069V39.6128C116.322 40.1339 116.255 40.6282 116.134 41.1091C115.652 42.9662 114.287 44.4626 112.533 45.1439C112.466 45.1706 112.399 45.1974 112.332 45.2241C111.73 45.4379 111.074 45.5447 110.391 45.5447H87.539C87.2444 45.5447 86.9365 45.518 86.6554 45.4779C84.808 45.1974 83.2283 44.0751 82.3581 42.512C81.8761 41.6569 81.6084 40.6683 81.6084 39.6262V16.8069C81.6084 13.5337 84.2725 10.875 87.5523 10.875H110.404C113.671 10.875 116.322 13.5337 116.322 16.8069Z" fill="#D2E4FF"/>
<path d="M97.0173 25.356C97.0173 25.356 96.9102 28.4556 96.522 29.8451L93.376 32.0361L105.237 33.813L102.412 29.9119C102.412 29.9119 101.556 25.7435 102.011 24.207C102.439 22.6706 97.0173 25.356 97.0173 25.356Z" fill="#FFB27D"/>
<path d="M97.0039 25.7852C97.0039 25.7852 97.941 28.043 99.7081 27.9896C101.475 27.9361 101.877 25.9455 101.877 25.9455L97.0039 25.7852Z" fill="#ED985F"/>
<path d="M95.9463 23.954C95.9463 23.954 95.3707 21.1082 94.9824 20.2532C94.5808 19.3981 94.2461 15.5504 98.6639 15.35C98.6639 15.35 100.351 15.5504 101.288 14.9893C101.288 14.9893 101.288 15.5504 101.06 15.7508C101.06 15.7508 102.586 15.3901 103.778 16.7127C104.969 18.0354 102.988 22.6714 103.082 23.7669L95.9463 23.954Z" fill="#2C3A64"/>
<path d="M103.135 19.9985V23.0981C103.135 23.6191 103.015 24.1135 102.814 24.5677C102.466 25.356 101.877 26.0373 101.221 26.4782C100.645 26.879 100.03 27.1195 99.4942 27.1062C99.039 27.0928 98.4366 26.879 97.8609 26.4916C97.0845 25.9705 96.3348 25.1689 96.0269 24.2337V24.2203L96.0135 24.1803C95.9198 23.8863 95.8662 23.5924 95.8662 23.2851V19.9985C95.8662 19.2236 96.4017 18.5957 97.0577 18.5957H101.944C102.6 18.5957 103.135 19.2236 103.135 19.9985Z" fill="#FFB27D"/>
<path d="M106.429 30.6607C106.429 30.6607 103.644 30.0595 102.399 29.9125C101.301 31.3688 100.511 31.7696 99.5074 32.157C97.8876 31.9299 96.5221 29.8858 96.5221 29.8457C94.755 30.0327 93.5769 30.4068 93.0815 30.5538C92.9744 30.5672 88.6504 31.1684 82.345 42.5513C83.2285 44.1144 84.7948 45.25 86.6423 45.5172C87.4589 44.8225 89.1992 43.2994 90.5647 42.1237C90.5514 42.5112 90.5514 42.8585 90.5514 43.1525C90.5781 43.9674 90.6049 44.7824 90.6183 45.584H107.821C107.794 45.1699 107.767 44.7824 107.741 44.395C107.687 43.2193 107.62 42.1371 107.58 41.1484C107.58 41.1351 107.58 41.1351 107.58 41.1217C107.58 41.1084 107.58 41.095 107.58 41.095C107.834 41.3088 108.129 41.5626 108.45 41.8432C108.517 41.8966 108.584 41.95 108.651 42.0168C108.704 42.0703 108.771 42.1104 108.825 42.1638C108.905 42.2306 108.986 42.2974 109.066 42.3776C109.213 42.5112 109.36 42.6314 109.508 42.765C109.575 42.8185 109.642 42.8853 109.709 42.9387C109.749 42.9654 109.775 43.0055 109.816 43.0322C109.856 43.0723 109.896 43.099 109.936 43.1391C109.963 43.1658 110.003 43.1925 110.03 43.2193C110.11 43.2861 110.177 43.3529 110.244 43.4063C110.311 43.4597 110.364 43.5132 110.418 43.5666C110.472 43.6067 110.512 43.6468 110.565 43.7002C110.739 43.8606 110.927 44.0075 111.101 44.1545C111.168 44.2079 111.235 44.2747 111.302 44.3282C111.369 44.395 111.435 44.4484 111.502 44.5018C111.556 44.5419 111.596 44.582 111.65 44.6221C111.676 44.6354 111.69 44.6622 111.717 44.6755C111.784 44.7423 111.864 44.7958 111.931 44.8492C111.998 44.916 112.065 44.9695 112.132 45.0229C112.158 45.0496 112.185 45.063 112.212 45.0897C112.239 45.1164 112.265 45.1431 112.292 45.1565C112.359 45.1298 112.426 45.1031 112.493 45.0763C114.26 44.395 115.612 42.8986 116.094 41.0416C110.231 30.9546 106.429 30.6607 106.429 30.6607Z" fill="#F99746"/>
<path d="M95.8662 21.75C95.8662 21.75 95.8796 19.7727 97.4459 19.4655C99.0122 19.1582 102.52 20.4274 103.015 18.9845C103.51 17.5416 96.2277 17.5683 95.8662 18.4902C95.5048 19.412 95.8662 21.75 95.8662 21.75Z" fill="#2C3A64"/>
<path d="M92.6664 45.5312H90.6316C90.6182 44.7162 90.5914 43.9146 90.5646 43.0997C90.5512 42.7924 90.5646 42.445 90.578 42.0709C90.578 41.9908 90.578 41.8972 90.5914 41.8037C90.6048 41.8304 90.645 41.8972 90.6985 41.964C90.993 42.4717 91.823 43.8478 92.6664 45.5312Z" fill="#ED7D2B"/>
<path d="M101.221 25.117V26.4797C100.645 26.8805 100.03 27.121 99.4941 27.1077C99.0389 27.0943 98.4365 26.8806 97.8608 26.4931V25.117C97.8608 24.3555 98.49 23.7275 99.2531 23.7275H99.8288C100.605 23.7275 101.221 24.3555 101.221 25.117Z" fill="#2C3A64"/>
<path d="M112.533 45.1435C112.466 45.1702 112.4 45.1969 112.333 45.2237C112.306 45.1969 112.279 45.1836 112.252 45.1569C112.226 45.1301 112.199 45.1168 112.172 45.0901C112.105 45.0366 112.038 44.9698 111.971 44.9164C111.904 44.8629 111.837 44.7961 111.757 44.7427C111.73 44.7293 111.717 44.7026 111.69 44.6893C111.636 44.6492 111.596 44.6091 111.543 44.569C111.476 44.5156 111.409 44.4488 111.342 44.3953C111.275 44.3419 111.208 44.2751 111.141 44.2216C110.967 44.0747 110.793 43.9144 110.606 43.7674C110.552 43.7273 110.512 43.6872 110.458 43.6338C110.405 43.5804 110.338 43.5269 110.284 43.4735C110.217 43.4067 110.137 43.3399 110.07 43.2864C110.043 43.2597 110.003 43.233 109.976 43.2063C109.936 43.1662 109.896 43.1261 109.856 43.0994C109.816 43.0727 109.776 43.0326 109.749 43.0059C109.682 42.9391 109.615 42.8856 109.548 42.8322C109.401 42.6986 109.254 42.5783 109.106 42.4447C109.026 42.3779 108.946 42.2978 108.865 42.231C108.812 42.1775 108.745 42.1241 108.691 42.084C108.624 42.0306 108.557 41.9638 108.49 41.9103C108.169 41.6298 107.875 41.3759 107.62 41.1622L107.607 41.1488C107.607 41.1488 107.607 41.1488 107.62 41.1354C107.781 41.0152 109.267 40.0399 110.204 41.6966C110.833 42.8055 111.891 44.2884 112.533 45.1435Z" fill="#ED7D2B"/>
<path d="M102.814 24.5681C102.158 26.0645 100.619 27.1333 99.4941 27.1065C98.4097 27.0932 96.5623 25.8774 96.0134 24.2341V24.2207L96 24.1807C96 24.1807 97.1647 25.1693 97.9278 24.675H101.154C101.154 24.675 102.011 25.156 102.814 24.5681Z" fill="#2C3A64"/>
<path d="M99.8955 24.9563H99.1993C99.0387 24.9563 98.8379 24.7025 98.8379 24.5422C98.8379 24.5422 99.0387 24.3818 99.1993 24.3818H99.8955C100.056 24.3818 100.284 24.5154 100.324 24.609C100.324 24.609 100.23 24.9563 99.8955 24.9563Z" fill="#FFB27D"/>
<path d="M170.379 51.0627H139.589C135.171 51.0627 131.583 47.4822 131.583 43.0733V12.3449C131.583 7.936 135.171 4.35547 139.589 4.35547H170.379C174.797 4.35547 178.385 7.936 178.385 12.3449V43.0733C178.372 47.4822 174.797 51.0627 170.379 51.0627Z" fill="#E3F0FF"/>
<path d="M172.321 15.846V38.6518C172.321 40.1081 171.798 41.4441 170.915 42.4729C169.83 43.7554 168.197 44.5704 166.377 44.5704H143.525C142.025 44.5704 140.66 44.0226 139.615 43.1008C138.37 42.0186 137.594 40.4154 137.594 38.6385V15.846C137.594 12.5727 140.258 9.91406 143.538 9.91406H166.39C169.656 9.92742 172.321 12.5727 172.321 15.846Z" fill="#D2E4FF"/>
<path d="M152.521 31.1419C152.521 31.1419 148.799 30.9549 148.692 28.8039C148.585 26.6529 145.506 25.0898 146.403 23.3663C147.501 21.2554 146.497 19.2246 147.875 17.7951C149.402 16.2319 151.316 17.0736 152.333 16.1651C153.351 15.2566 155.198 14.415 157.032 15.5372C158.866 16.6595 160.259 16.0583 161.463 17.1404C162.789 18.3429 162.293 19.8526 163.378 20.6675C164.382 21.4157 163.967 23.4732 163.123 25.1432C162.508 26.3456 163.913 27.4679 161.504 28.8573C160.5 29.4318 160.714 30.8747 157.675 31.1286C156.309 31.2622 153.324 30.6209 152.521 31.1419Z" fill="#2C3A64"/>
<path d="M152.641 29.244C152.641 29.244 152.534 32.5975 152.106 34.1072L148.705 36.4719L161.53 38.3824L158.478 34.1606C158.478 34.1606 157.554 29.6582 158.036 28.0016C158.505 26.3449 152.641 29.244 152.641 29.244Z" fill="#B56F40"/>
<path d="M152.615 29.7002C152.615 29.7002 153.632 32.1318 155.533 32.0783C157.447 32.0249 157.876 29.8739 157.876 29.8739L152.615 29.7002Z" fill="#99592E"/>
<path d="M155.319 31.1417C153.94 31.115 151.383 29.2846 151.383 27V23.4462C151.383 22.6179 151.958 21.9365 152.668 21.9365H157.943C158.652 21.9365 159.228 22.6179 159.228 23.4462V26.7996C159.254 29.1911 156.912 31.1684 155.319 31.1417Z" fill="#B56F40"/>
<path d="M162.816 35.0303C161.263 34.6428 159.803 34.3355 158.451 34.1752C157.26 35.7517 156.403 36.1659 155.319 36.6068C153.565 36.3663 152.092 34.1618 152.092 34.1084C150.191 34.3088 148.906 34.7096 148.384 34.8699C148.237 34.8833 144.823 35.4177 139.615 43.18C140.66 44.1018 142.025 44.6496 143.525 44.6496H145.881H147.782H163.967C163.967 44.6362 163.967 44.6095 163.967 44.5962H166.377C168.197 44.5962 169.817 43.7812 170.915 42.4986C167.26 36.2193 162.816 35.0303 162.816 35.0303Z" fill="#B64C41"/>
<path d="M151.396 24.8881C151.396 24.8881 152.36 21.9622 155.506 22.4165C158.652 22.8707 158.92 23.5387 159.255 24.327C159.589 25.1019 160.232 21.4813 160.232 21.4813L156.524 20.3857C156.524 20.3857 152.039 20.8934 151.704 21.6416C151.383 22.3898 151.383 22.3898 151.383 22.3898L151.396 24.8881Z" fill="#2C3A64"/>
<path d="M158.92 25.2774C158.746 25.0636 158.451 24.9434 158.13 24.9434H156.457C156.135 24.9434 155.921 25.0369 155.801 25.2106C155.747 25.2907 155.72 25.3842 155.707 25.4911C155.426 25.4243 155.158 25.451 154.971 25.5045C154.957 25.3976 154.93 25.3041 154.877 25.2106C154.756 25.0369 154.529 24.9434 154.221 24.9434H152.547C152.213 24.9434 151.932 25.0636 151.758 25.2774C151.597 25.4778 151.543 25.7316 151.597 26.0122C151.784 26.9608 152.869 27.081 153.418 27.081C153.592 27.081 153.699 27.0676 153.726 27.0676C154.234 27.0676 154.596 26.7737 154.85 26.1591C154.89 26.0523 154.971 25.8519 154.971 25.6515C155.145 25.598 155.426 25.5579 155.707 25.6381C155.72 25.8519 155.787 26.0523 155.827 26.1591C156.082 26.7737 156.443 27.0676 156.952 27.0676C156.979 27.0676 157.086 27.081 157.26 27.081C157.809 27.081 158.893 26.9608 159.08 26.0255C159.121 25.7316 159.067 25.4778 158.92 25.2774ZM154.837 25.6782C154.823 25.8652 154.756 26.0389 154.716 26.1191C154.475 26.6935 154.154 26.9608 153.685 26.9608H153.672C153.672 26.9608 153.217 27.0142 152.748 26.9207C152.132 26.8004 151.771 26.4798 151.664 25.9988C151.61 25.745 151.664 25.5312 151.798 25.3575C151.958 25.1705 152.213 25.0636 152.507 25.0636H154.181C154.462 25.0636 154.649 25.1438 154.743 25.2907C154.797 25.3709 154.81 25.451 154.823 25.5446C154.743 25.5713 154.689 25.598 154.676 25.598C154.649 25.6114 154.622 25.6515 154.649 25.6915C154.663 25.7183 154.689 25.7316 154.703 25.7316C154.716 25.7316 154.716 25.7316 154.73 25.7316C154.756 25.7049 154.783 25.6915 154.837 25.6782ZM158.96 25.9855C158.866 26.4664 158.491 26.7737 157.876 26.9073C157.407 27.0008 156.952 26.9474 156.952 26.9474C156.497 26.9474 156.162 26.6802 155.921 26.1057C155.894 26.0255 155.827 25.8519 155.801 25.6648C155.827 25.6782 155.868 25.6915 155.894 25.7049C155.921 25.7183 155.961 25.7049 155.988 25.6782C156.001 25.6515 155.988 25.6114 155.961 25.5847C155.908 25.5579 155.854 25.5312 155.801 25.5178C155.801 25.4243 155.827 25.3442 155.881 25.2774C155.975 25.1304 156.175 25.0502 156.443 25.0502H158.117C158.411 25.0502 158.679 25.1571 158.826 25.3442C158.96 25.5178 159.014 25.745 158.96 25.9855Z" fill="#2C3A64"/>
<path d="M233.741 49.9666L203.152 46.4395C198.761 45.9318 195.615 41.9772 196.123 37.595L199.658 7.06697C200.166 2.68482 204.129 -0.454824 208.52 0.0528637L239.096 3.57996C243.487 4.08764 246.633 8.04226 246.125 12.4244L242.59 42.9525C242.095 47.3346 238.132 50.4743 233.741 49.9666Z" fill="#E3F0FF"/>
<path d="M239.712 15.2168L237.088 37.8757C236.981 38.7575 236.687 39.5725 236.258 40.2939C235.576 41.4028 234.558 42.2445 233.353 42.7121C232.67 42.9793 231.921 43.1263 231.144 43.1129C230.93 43.1129 230.716 43.0996 230.502 43.0729L220.876 41.964L218.975 41.7502L212.75 41.0288L211.947 40.9352L207.797 40.4543C205.561 40.2004 203.754 38.7308 202.964 36.7802C202.911 36.66 202.87 36.5264 202.817 36.3928C202.643 35.8717 202.549 35.3373 202.536 34.7628C202.522 34.4689 202.536 34.175 202.576 33.8677L205.2 11.2088C205.575 7.96225 208.52 5.62421 211.773 5.9983L234.478 8.6169C237.744 9.03106 240.087 11.9703 239.712 15.2168Z" fill="#D2E4FF"/>
<path d="M230.1 20.4414C230.1 20.428 230.1 20.4013 230.087 20.3879C230.02 19.9738 229.926 19.5596 229.846 19.1588C230.355 15.9256 229.109 14.5362 228.025 13.8281C227.449 12.6925 226.82 11.9042 226.245 11.637C225.174 11.1427 223.942 11.1828 223.099 11.303C223.299 11.0625 223.728 10.9423 223.728 10.9423C223.192 10.9022 222.054 11.5301 222.054 11.5301C214.424 9.31233 214.183 20.2543 214.558 22.766C214.919 25.2778 212.362 26.3199 208.681 28.6312C205.347 30.7287 203.54 32.9866 202.576 34.7902C202.589 35.3514 202.696 35.8991 202.857 36.4202C202.978 36.3133 203.098 36.2331 203.219 36.1931C203.205 36.2198 203.125 36.4603 203.004 36.8076C203.794 38.7582 205.601 40.2145 207.837 40.4817L211.987 40.9626L212.79 41.0562L219.015 41.7776C219.671 40.8558 220.381 39.8938 221.117 38.9453C222.911 36.6339 224.879 34.3627 226.593 32.706C227.155 32.1583 227.69 31.6773 228.186 31.2899C228.199 31.2765 228.226 31.2631 228.239 31.2498C228.48 30.8223 228.668 30.3279 228.828 29.8202C229.35 28.0968 229.458 26.1863 229.458 25.9992C229.458 27.7761 229.297 29.0053 229.096 29.8603C229.016 30.1943 228.922 30.4749 228.842 30.702C229.056 30.4615 229.257 30.1943 229.431 29.9004C230.703 27.6826 230.716 23.9551 230.1 20.4414Z" fill="#163560"/>
<path d="M227.008 31.9304C227.034 31.9438 224.504 32.9057 222.75 32.211C221.117 31.5563 220.26 29.245 220.287 29.245C221.024 29.1916 221.345 28.2296 221.813 24.0078L222.135 24.1147L227.449 25.8114C227.449 25.8114 227.128 27.5082 226.941 29.1114C226.78 30.4474 226.713 31.7434 227.008 31.9304Z" fill="#FFB27D"/>
<path d="M220.234 13.934C220.234 13.934 222.684 10.8478 226.298 13.2794C226.298 13.2794 224.304 13.1057 220.234 13.934Z" fill="#BC3F3F"/>
<path d="M227.449 25.799C227.449 25.799 227.128 27.4957 226.941 29.0989C223.902 28.6581 222.617 25.7055 222.135 24.0889L227.449 25.799Z" fill="#EF9E67"/>
<path d="M228.306 26.7602C228.306 26.7602 221.09 27.4817 220.702 22.9926C220.314 18.5036 219.122 15.5644 223.714 14.9097C228.306 14.2551 229.35 15.8984 229.846 17.368C230.341 18.8376 230.167 26.4529 228.306 26.7602Z" fill="#FFB27D"/>
<path d="M227.008 14.5362C227.008 14.5362 225.468 19.9738 222.496 21.0159C219.524 22.0447 218.132 21.3499 218.132 21.3499C218.132 21.3499 220.301 19.3058 220.515 16.0459C220.528 16.0326 225.294 12.1448 227.008 14.5362Z" fill="#163560"/>
<path d="M226.552 15.0032C226.552 15.0032 228.132 16.0586 228.587 17.1675C229.043 18.2764 229.404 20.6278 230.087 20.4809C230.087 20.4809 231.278 16.7667 229.431 14.8829C227.463 12.8923 226.552 15.0032 226.552 15.0032Z" fill="#163560"/>
<path d="M233.193 31.5701C232.443 30.6349 230.917 30.1406 229.404 29.8867C229.297 29.8734 229.19 29.8466 229.083 29.8333C228.989 29.8199 228.895 29.8065 228.802 29.7932C228.172 29.713 227.557 29.6729 227.048 29.6462C226.968 29.5393 226.927 29.4725 226.914 29.4458L220.809 28.9515H220.743C220.743 28.9515 220.743 28.9515 220.729 28.9515H220.716C220.261 28.8981 213.928 28.2701 212.71 30.5013C211.907 31.9575 211.894 34.7365 212.268 37.836C212.148 38.8781 212.054 39.9469 211.974 40.949L212.777 41.0425L219.002 41.7639L220.903 41.9777L230.529 43.0866C230.743 43.1133 230.957 43.1267 231.171 43.1267C231.948 43.1267 232.684 42.9931 233.38 42.7259C234.585 42.2583 235.602 41.4032 236.285 40.3077C235.335 36.5134 234.17 32.7992 233.193 31.5701Z" fill="#BC3F3F"/>
<path d="M237.985 108.15H207.208C202.79 108.15 199.216 104.583 199.216 100.174V69.4458C199.216 65.0369 202.79 61.4697 207.208 61.4697H237.985C242.403 61.4697 245.977 65.0369 245.977 69.4458V100.161C245.977 104.57 242.403 108.15 237.985 108.15Z" fill="#E3F0FF"/>
<path d="M239.926 72.9586V95.7511C239.926 96.3256 239.846 96.8734 239.699 97.3944C239.016 99.7725 236.861 101.549 234.29 101.67C234.197 101.67 234.103 101.683 233.996 101.683H211.157C211.117 101.683 211.077 101.683 211.037 101.683C210.996 101.683 210.956 101.683 210.916 101.683C208.332 101.576 206.164 99.826 205.468 97.4479C205.307 96.9134 205.227 96.3523 205.227 95.7645V72.9586C205.227 69.6854 207.877 67.04 211.157 67.04H233.996C237.262 67.04 239.926 69.6854 239.926 72.9586Z" fill="#D2E4FF"/>
<path d="M219.149 83.5141C219.149 83.5141 219.016 87.5623 218.493 89.3793L214.384 92.2384L229.873 94.5497L226.178 89.4594C226.178 89.4594 225.067 84.0218 225.642 82.0178C226.231 80.0138 219.149 83.5141 219.149 83.5141Z" fill="#FFB27D"/>
<path d="M219.122 84.0762C219.122 84.0762 220.341 87.0154 222.657 86.9486C224.959 86.8818 225.495 84.2766 225.495 84.2766L219.122 84.0762Z" fill="#ED985F"/>
<path d="M217.757 81.6974C217.757 81.6974 217.007 77.9832 216.498 76.861C215.976 75.7387 215.548 70.7153 221.304 70.4614C221.304 70.4614 223.513 70.7153 224.732 69.9805C224.732 69.9805 224.732 70.7153 224.424 70.9691C224.424 70.9691 226.418 70.4882 227.971 72.225C229.538 73.9484 226.927 80.014 227.061 81.4302L217.757 81.6974Z" fill="#2C3A64"/>
<path d="M222.402 85.8257C220.729 85.7989 217.65 83.5811 217.65 80.8289V76.5403C217.65 75.5383 218.346 74.71 219.216 74.71H225.589C226.445 74.71 227.155 75.5383 227.155 76.5403V80.5885C227.141 83.4609 224.317 85.8524 222.402 85.8257Z" fill="#FFB27D"/>
<path d="M217.65 78.8114C217.65 78.8114 217.663 76.2329 219.711 75.8321C221.76 75.4313 226.338 77.0879 226.994 75.2042C227.65 73.3204 218.132 73.3604 217.663 74.5495C217.168 75.7653 217.65 78.8114 217.65 78.8114Z" fill="#2C3A64"/>
<path d="M232.831 101.671H211.157C211.117 101.671 211.077 101.671 211.037 101.671C211.585 96.7146 212.764 90.7426 213.701 90.3418C213.701 90.3418 213.808 90.3017 214.022 90.2349C214.517 90.088 215.562 89.7941 217.074 89.5669H217.088C217.529 89.5001 217.998 89.4333 218.52 89.3799C218.52 89.4467 220.301 92.0386 222.416 92.3325C223.728 91.8114 224.759 91.3706 226.204 89.46C226.673 89.5135 227.168 89.5803 227.664 89.6604C228.868 89.8475 230.14 90.1013 231.479 90.4353C231.64 90.4754 231.8 90.5155 231.947 90.5556C232.014 90.5689 232.068 90.5823 232.135 90.609C232.135 90.609 232.148 90.6758 232.188 91.0633C232.242 91.945 232.443 94.4835 232.831 101.671Z" fill="#739AF0"/>
<path d="M213.861 90.2742H213.848C213.768 90.2875 213.66 90.3276 213.513 90.3677C213.5 90.3677 213.5 90.3677 213.486 90.3811C213.473 90.3811 213.473 90.3811 213.473 90.3811C213.46 90.3811 213.46 90.3811 213.46 90.3811C212.322 90.7819 209.457 92.2248 205.454 97.4219C206.15 99.8 208.319 101.564 210.903 101.657C210.943 101.657 210.983 101.657 211.023 101.657C211.063 101.657 211.104 101.657 211.144 101.657H213.299H216.9C216.967 97.9964 217.007 94.8167 217.034 92.6256C217.047 91.6636 217.061 90.8888 217.061 90.3677C217.061 89.8333 217.074 89.5527 217.074 89.5527H217.061C215.923 89.6997 214.544 90.0738 213.861 90.2742Z" fill="#2B478B"/>
<path d="M232.108 90.6078C231.814 90.5009 231.613 90.4608 231.519 90.4341C230.756 90.247 229.029 89.8195 227.637 89.6592C227.637 89.6859 227.637 90.3539 227.65 91.4895C227.65 92.2243 227.663 93.1462 227.677 94.2284C227.69 96.2458 227.73 98.8109 227.757 101.67H231.867H233.982C234.076 101.67 234.183 101.67 234.277 101.657C236.861 101.536 239.002 99.7595 239.685 97.3814C235.95 92.5049 233.286 91.0486 232.108 90.6078Z" fill="#2B478B"/>
<path d="M226.432 78.6104C226.231 78.3699 225.91 78.2363 225.535 78.2363H223.661C223.299 78.2363 223.058 78.3432 222.925 78.5436C222.858 78.6371 222.831 78.744 222.817 78.8509C222.496 78.7707 222.202 78.8108 221.987 78.8643C221.974 78.744 221.947 78.6371 221.88 78.5436C221.746 78.3432 221.492 78.2363 221.144 78.2363H219.27C218.895 78.2363 218.574 78.3699 218.373 78.6104C218.199 78.8242 218.132 79.1181 218.199 79.4387C218.413 80.4942 219.631 80.6278 220.247 80.6278C220.435 80.6278 220.568 80.6145 220.595 80.6145C221.171 80.6145 221.572 80.2938 221.867 79.5857C221.921 79.4655 222.001 79.2383 222.014 79.0112C222.215 78.9578 222.523 78.9043 222.844 78.9979C222.858 79.2383 222.938 79.4655 222.991 79.5857C223.286 80.2804 223.688 80.6145 224.263 80.6145C224.29 80.6145 224.424 80.6278 224.611 80.6278C225.227 80.6278 226.445 80.4942 226.66 79.4387C226.673 79.1047 226.619 78.8242 226.432 78.6104ZM221.854 79.0513C221.827 79.2651 221.76 79.4521 221.72 79.5456C221.452 80.1869 221.077 80.4942 220.568 80.4942H220.555C220.555 80.4942 220.046 80.5476 219.511 80.4408C218.815 80.2938 218.4 79.9464 218.293 79.412C218.239 79.1315 218.293 78.8776 218.44 78.6906C218.614 78.4768 218.908 78.3566 219.243 78.3566H221.117C221.425 78.3566 221.639 78.4367 221.76 78.6104C221.813 78.6906 221.84 78.7975 221.854 78.9043C221.76 78.9311 221.693 78.9578 221.693 78.9711C221.653 78.9845 221.639 79.0379 221.653 79.0647C221.666 79.0914 221.693 79.1047 221.72 79.1047C221.733 79.1047 221.746 79.1047 221.746 79.1047C221.76 79.0914 221.8 79.0647 221.854 79.0513ZM226.486 79.412C226.378 79.9598 225.963 80.3072 225.267 80.4408C224.732 80.5476 224.237 80.4942 224.223 80.4942H224.21C223.688 80.4942 223.326 80.1869 223.058 79.5456C223.018 79.4655 222.951 79.2517 222.925 79.0379C222.965 79.0513 222.992 79.0647 223.032 79.0914C223.072 79.1047 223.112 79.0914 223.125 79.0647C223.139 79.0246 223.125 78.9845 223.099 78.9711C223.045 78.9444 222.978 78.9177 222.925 78.891C222.938 78.7975 222.965 78.6906 223.018 78.6104C223.125 78.4501 223.34 78.3566 223.661 78.3566H225.535C225.87 78.3566 226.164 78.4768 226.338 78.6906C226.499 78.8776 226.539 79.1181 226.486 79.412Z" fill="#B64C41"/>
<path d="M163.07 113.761H127.366C122.239 113.761 118.089 109.619 118.089 104.502V68.8836C118.089 63.7667 122.239 59.625 127.366 59.625H163.057C168.184 59.625 172.334 63.7667 172.334 68.8836V104.502C172.347 109.619 168.184 113.761 163.07 113.761Z" fill="#E3F0FF"/>
<path d="M165.319 72.9443V99.3841C165.319 102.27 163.539 104.728 161.022 105.757C160.875 105.81 160.727 105.877 160.567 105.917C159.897 106.131 159.174 106.251 158.438 106.251H131.945C128.143 106.251 125.064 103.178 125.064 99.3841V72.9443C125.064 69.15 128.143 66.0771 131.945 66.0771H158.438C162.24 66.0771 165.319 69.15 165.319 72.9443Z" fill="#D2E4FF"/>
<path d="M145.412 73.0913C144.676 72.9176 143.806 72.8776 142.802 73.0112C142.802 73.0112 141.008 73.1848 139.321 74.3205C137.982 75.229 136.041 77.1795 138.21 82.537L139.241 84.3807C138.893 88.3888 137.26 88.3888 137.26 88.3888C137.26 88.3888 137.982 88.7361 138.331 88.7361C138.331 88.7361 138.839 88.5491 138.933 88.2685C138.933 88.2685 138.839 88.7094 138.705 88.843C138.705 88.843 141.503 89.1102 142.896 88.0547C143.659 87.4803 144.489 86.1442 145.024 84.7681L147.139 84.9151C147.166 85.8236 146.831 86.8523 145.827 87.9479C145.827 87.9479 148.438 88.2017 149.308 87.4803C149.308 87.4803 149.134 87.8276 148.973 87.9879C148.973 87.9879 151.892 88.0948 153.083 87.1863C154.275 86.2912 153.498 71.4213 145.412 73.0913Z" fill="#233862"/>
<path d="M155.506 106.25H134.89C134.636 104.647 134.488 103.164 134.582 101.735C134.703 99.9443 135.492 98.3277 136.43 97.0051C137.956 94.8675 139.857 93.5314 139.857 93.5314C139.857 93.5314 139.91 93.5181 139.991 93.5047C140.138 93.478 140.392 93.4379 140.66 93.4112C140.914 93.2776 141.021 92.3424 141.048 91.2468C141.062 90.9396 141.062 90.6323 141.062 90.3116C141.062 90.0444 141.062 89.7639 141.048 89.4967C141.048 89.3764 141.048 89.2428 141.035 89.1226C141.035 89.0825 141.035 89.0558 141.035 89.0157C141.035 88.9622 141.035 88.9088 141.035 88.8554C141.035 88.8153 141.035 88.7752 141.035 88.7351C141.035 88.6683 141.035 88.6149 141.035 88.5481C141.035 88.4679 141.035 88.3878 141.021 88.3076C141.021 88.2942 141.021 88.2809 141.021 88.2542C141.021 88.174 141.021 88.1072 141.008 88.0404C141.008 87.9602 140.995 87.8667 140.995 87.7865V87.7197C140.995 87.5861 140.981 87.4793 140.981 87.3724C140.981 87.3457 140.981 87.3189 140.981 87.2922C140.981 87.2655 140.981 87.2254 140.981 87.1987C140.981 87.172 140.981 87.1453 140.981 87.1185C140.981 87.025 140.968 86.9582 140.968 86.8914C140.968 86.8781 140.968 86.8647 140.968 86.8513C140.968 86.838 140.968 86.8246 140.968 86.8113C140.968 86.7578 140.968 86.7177 140.968 86.7177L144.449 86.0364L146.831 85.5688L147.113 85.5153L147.18 85.502C147.18 86.3971 147.22 87.2254 147.313 87.9736C147.38 88.6149 147.487 89.1894 147.608 89.7238C148.036 91.6476 148.719 92.7966 149.201 92.9837C149.214 92.997 149.228 92.997 149.255 92.997C151.597 93.5181 155.212 99.6638 155.506 106.25Z" fill="#D9935C"/>
<path d="M140.941 86.759C140.941 86.759 141.075 88.6027 141.075 90.3396C144.355 90.246 146.095 87.2533 146.805 85.5967L140.941 86.759Z" fill="#CB7D45"/>
<path d="M139.843 88.4019C139.843 88.4019 147.608 88.5355 147.621 83.6991C147.621 78.8761 148.639 75.6296 143.672 75.349C138.719 75.0684 137.741 76.8988 137.353 78.5154C136.952 80.1186 137.822 88.2416 139.843 88.4019Z" fill="#D9935C"/>
<path d="M140.125 75.2291C140.125 75.2291 142.253 80.8938 145.52 81.7355C148.786 82.5772 150.205 81.6954 150.205 81.6954C150.205 81.6954 147.702 79.7047 147.18 76.2444C147.18 76.2444 141.731 72.5303 140.125 75.2291Z" fill="#233862"/>
<path d="M140.66 75.6835C140.66 75.6835 139.066 76.9527 138.678 78.1819C138.29 79.411 138.116 81.9494 137.38 81.8559C137.38 81.8559 135.773 78.0082 137.581 75.8305C139.481 73.5191 140.66 75.6835 140.66 75.6835Z" fill="#233862"/>
<path d="M140.365 75.8835C140.365 75.8835 141.878 81.8155 146.002 83.7126C146.002 83.7126 141.878 80.0653 141.53 76.1507C141.182 72.2362 140.365 75.8835 140.365 75.8835Z" fill="#233862"/>
<path d="M160.004 103.325C159.871 103.004 159.737 102.697 159.616 102.389C159.549 102.242 159.482 102.082 159.429 101.935C159.429 101.922 159.429 101.922 159.429 101.922C157.635 97.6732 156.216 94.4534 156.069 94.2263C155.667 93.5449 150.192 92.8769 149.402 92.8903C148.826 92.8903 148.505 90.9664 148.371 89.9109C148.331 89.617 148.009 89.4701 147.768 89.6304C147.715 89.6705 147.648 89.7105 147.594 89.7506C147.528 89.7907 147.447 89.8441 147.38 89.8842C147.313 89.9243 147.233 89.9777 147.166 90.0178C147.113 90.0445 147.072 90.0713 147.019 90.098C146.965 90.1247 146.912 90.1514 146.858 90.1915C146.805 90.2182 146.764 90.2449 146.711 90.2717C146.657 90.2984 146.617 90.3251 146.564 90.3518C146.51 90.3785 146.47 90.4053 146.416 90.4186C146.376 90.432 146.336 90.4587 146.296 90.4721C146.229 90.4988 146.149 90.5389 146.082 90.5656C146.028 90.5923 145.975 90.6057 145.921 90.6324C145.881 90.6457 145.854 90.6591 145.814 90.6725C145.613 90.7526 145.412 90.8194 145.212 90.8862C143.538 91.434 141.985 91.4874 141.088 91.2737C141.061 91.2737 141.048 91.2603 141.021 91.2603C140.566 91.1401 140.151 91.5542 140.245 92.0085C140.365 92.5563 140.392 93.1575 140.084 93.4514C138.692 93.7587 135.318 94.6271 134.676 95.8161C134.221 96.6712 134.18 101.748 133.939 106.25H134.475H140.968H158.452C159.201 106.25 159.911 106.13 160.58 105.916C160.727 105.863 160.888 105.81 161.035 105.756C160.674 104.928 160.339 104.113 160.004 103.325Z" fill="#F99746"/>
<path d="M152.575 106.251H149.281C150.111 104.875 150.901 103.873 151.37 103.819C151.758 103.779 152.187 104.808 152.575 106.251Z" fill="#ED7D2B"/>
<path d="M149.388 92.8769C149.388 92.8769 145.292 95.4688 142.2 94.8542C142.2 94.8542 141.45 94.3866 142.481 93.919C143.445 93.4781 145.68 92.1688 145.198 90.8862C146.055 90.6057 146.925 90.2049 147.755 89.6304C147.996 89.4701 148.331 89.617 148.358 89.9109C148.492 90.953 148.813 92.8769 149.388 92.8769Z" fill="#ED7D2B"/>
<path d="M191.893 107.136C191.893 107.136 198.132 113.509 198.439 115.953C198.747 118.412 195.427 122.246 195.427 122.246L191.893 107.136Z" fill="#ED7D2B"/>
<path d="M189.108 174.618C189.108 174.618 188.894 178.078 188.225 178.132C188.131 178.132 184.824 178.132 184.824 178.132L180.594 178.105C180.594 178.105 180.621 177.09 181.852 176.876C183.084 176.662 185.159 175.794 185.909 174.164C186.699 172.454 189.108 174.618 189.108 174.618Z" fill="#163560"/>
<path d="M198.533 174.618C198.533 174.618 198.319 178.078 197.649 178.132C197.556 178.132 194.249 178.132 194.249 178.132L190.019 178.105C190.019 178.105 190.045 177.09 191.277 176.876C192.509 176.662 194.584 175.794 195.333 174.164C196.123 172.454 198.533 174.618 198.533 174.618Z" fill="#163560"/>
<path d="M184.423 137.41C184.423 137.41 185.534 144.477 189.657 157.009C193.781 169.541 194.343 174.979 194.343 174.979L198.774 174.858C198.774 174.858 198.814 161.151 196.913 154.845C195.012 148.539 196.498 132.119 196.498 132.119L184.423 137.41Z" fill="#163560"/>
<path d="M182.267 132.507C182.267 132.507 182.107 143.155 183.954 156.221C185.802 169.287 185.172 174.832 185.172 174.832L189.59 174.979C189.59 174.979 192.228 161.899 191.478 155.366C190.728 148.833 195.092 132.921 195.092 132.921L182.267 132.507Z" fill="#1C468A"/>
<path d="M190.822 107.603L188.466 109.14L185.065 108.512C185.119 108.231 185.333 107.096 185.547 106.067C185.561 106 185.574 105.947 185.588 105.88C185.762 104.998 185.909 104.25 185.909 104.25L189.082 102.847L190.273 102.326C190.273 102.34 190.179 103.301 190.166 103.435C189.952 105.92 190.822 107.603 190.822 107.603Z" fill="#FFB27D"/>
<path d="M185.936 106.827C186.003 106.801 190.032 105.612 190.474 105.759C190.916 105.906 191.17 106.747 191.17 106.747L184.57 108.23C184.583 108.23 185.092 107.175 185.936 106.827Z" fill="#ED7D2B"/>
<path d="M196.793 133.83C196.11 136.942 184.731 137.317 181.799 134.484C181.464 134.164 181.451 132.667 181.572 130.65C181.812 126.709 182.602 120.763 182.643 117.73C182.656 116.261 182.857 114.764 183.124 113.402C183.7 110.503 184.57 108.231 184.57 108.231C184.57 108.231 190.126 106.441 191.17 106.748C196.177 108.218 197.476 130.717 196.793 133.83Z" fill="#FF9843"/>
<path d="M181.585 130.635C181.826 126.693 182.616 120.748 182.656 117.715C182.669 116.246 182.87 114.749 183.138 113.387L186.485 112.799C186.485 112.812 189.751 126.132 181.585 130.635Z" fill="#ED7D2B"/>
<path d="M183.392 125.145C183.392 125.145 183.62 125.693 183.138 126.054C182.656 126.414 182.348 127.016 182.455 127.443C182.562 127.871 183.62 128.579 183.981 128.472C184.342 128.352 185.079 127.791 185.012 127.563C184.945 127.336 185.507 125.559 184.624 124.878C183.74 124.183 183.392 125.145 183.392 125.145Z" fill="#FFB27D"/>
<path d="M187.127 107.43C187.127 107.43 183.874 108.044 181.277 111.852C178.68 115.673 176.966 118.505 177.448 119.881C177.93 121.258 182.281 126.027 183.044 126.027C183.794 126.027 185.012 125.479 185.079 124.25C185.079 124.25 182.013 119.654 182.616 118.973C182.87 118.679 186.605 115.66 187.127 117.022C188.011 119.307 187.127 107.43 187.127 107.43Z" fill="#FF9843"/>
<path d="M189.925 103.489C189.229 104.665 186.632 105.693 185.547 106.067C185.561 106.001 185.574 105.947 185.588 105.88C185.762 104.999 185.909 104.25 185.909 104.25L189.082 102.848C189.791 102.848 190.22 103.008 189.925 103.489Z" fill="#FCA56B"/>
<path d="M184.704 104.063C184.704 104.063 189.818 105.653 190.769 102.46C191.719 99.2666 193.018 97.316 189.778 96.167C186.552 95.018 185.547 96.0468 184.972 97.0354C184.41 98.0241 183.406 103.569 184.704 104.063Z" fill="#FFB27D"/>
<path d="M185.186 96.7277C185.186 96.7277 185.507 100.442 186.284 100.282C187.06 100.121 187.756 100.001 187.636 101.123C187.529 102.245 186.993 104.022 189.376 104.223C191.746 104.423 194.624 97.8233 193.968 96.6609C192.094 93.3209 182.468 92.6529 185.186 96.7277Z" fill="#163560"/>
<path d="M274.653 37.423C274.653 37.423 272.31 40.1885 269.338 39.0262C269.338 39.0262 268.695 37.4764 268.695 36.3408C268.695 36.2072 268.695 36.0602 268.695 35.94C268.682 34.6574 268.642 33.9359 268.642 33.9359C268.776 33.8825 273.194 32.0655 273.194 32.2258C273.1 35.6861 274.653 37.423 274.653 37.423Z" fill="#FFB27D"/>
<path d="M272.738 33.0391C272.31 33.8274 270.851 35.3638 268.695 35.9249C268.682 34.6423 268.642 33.9209 268.642 33.9209C268.749 33.8942 272.859 32.812 272.738 33.0391Z" fill="#ED975D"/>
<path d="M267.705 33.8009C267.705 33.8009 272.672 34.9633 273.354 31.8637C274.037 28.7641 275.135 26.8269 271.989 25.9585C268.843 25.0901 267.973 26.1322 267.491 27.1075C267.009 28.0961 266.433 33.4135 267.705 33.8009Z" fill="#FFB27D"/>
<path d="M273.18 32.706C273.247 32.746 274.318 33.08 276.34 29.0586C276.661 28.4307 276.875 27.0679 276.139 25.8522C275.403 24.6498 272.779 23.7012 270.596 23.287C268.414 22.8728 267.892 24.102 267.384 25.3311C266.848 26.6271 265.282 27.6825 265.282 27.6825C267.156 28.7246 269.432 27.2283 270.208 27.4821C270.998 27.7226 271.266 28.9651 271.333 29.3525C271.386 29.7533 271.48 30.074 272.471 29.7266C273.461 29.3793 272.912 31.1161 272.765 31.4501C272.752 31.4635 272.618 32.3452 273.18 32.706Z" fill="#A9453D"/>
<path d="M285.965 109.929H288.977C289.607 109.929 290.303 109.301 290.477 108.152C290.651 107.003 291.949 106.375 292.23 105.427C292.512 104.478 291.079 103.155 291.079 103.155L290.838 102.848L290.584 102.527L288.201 103.088C288.201 103.088 288.147 103.65 288.107 104.371C288.08 104.892 288.067 105.493 288.094 106.014C288.161 107.27 287.746 108.633 286.621 108.873C285.497 109.114 285.965 109.929 285.965 109.929Z" fill="#2C3A64"/>
<path d="M265.041 109.929H273.006C273.087 109.916 273.14 109.902 273.18 109.876C273.716 109.609 273.542 107.578 273.488 106.95C273.475 106.83 273.462 106.763 273.462 106.763C273.462 106.763 270.664 104.532 270.275 106.242C270.262 106.295 270.249 106.349 270.235 106.402C269.753 108.005 267.571 108.727 266.313 108.941C265.349 109.087 265.108 109.649 265.041 109.929Z" fill="#2C3A64"/>
<path d="M266.647 64.0756C266.647 64.0756 267.076 69.3796 267.571 75.7391C268.254 84.3965 269.071 95.0179 269.151 97.0352C269.285 100.536 269.847 106.12 269.847 106.12C269.847 106.12 271.172 107.443 273.836 106.895C273.836 106.895 276.206 98.919 276.889 90.462C276.902 90.3284 276.915 90.1815 276.915 90.0479C277.545 81.4572 278.522 63.3408 278.522 63.3408L266.647 64.0756Z" fill="#2B478B"/>
<path d="M266.647 64.0756C266.647 64.0756 267.076 69.3796 267.571 75.7391L276.889 90.462C276.902 90.3284 276.915 90.1815 276.915 90.0479C277.545 81.4573 278.522 63.3408 278.522 63.3408L266.647 64.0756Z" fill="#233862"/>
<path d="M268.589 64.7044C268.589 64.7044 276.26 83.8897 281.307 92.9078C286.353 101.926 287.92 104.438 287.92 104.438C287.92 104.438 290.811 103.289 291.066 102.5C291.066 102.5 289.138 85.0921 285.764 80.8436C283.85 78.4521 281.614 71.2509 281.507 68.7392C281.4 66.2275 280.825 61.2441 280.825 61.2441L268.589 64.7044Z" fill="#2B478B"/>
<path d="M286.086 61.2189L286.166 62.448C286.166 62.448 285.349 64.6391 287.639 65.7614C287.639 65.7614 288.616 66.1488 288.656 65.4006C288.696 64.6525 288.576 64.933 288.656 63.8509C288.736 62.782 288.308 61.7667 287.598 61.4327L287.023 60.7646L286.086 61.2189Z" fill="#FFB27D"/>
<path d="M286.969 62.1128C286.126 62.38 285.979 62.3266 285.979 62.3266C285.979 62.3266 281.842 54.8182 281.427 54.1368C281.012 53.4554 272.658 45.7199 272.658 45.7199L274.8 37.7305C274.8 37.7305 284.305 50.0085 285.323 51.772C287.023 54.6846 288.013 61.4448 288.013 61.4448C288.013 61.4448 287.639 61.8991 286.969 62.1128Z" fill="#1E3D70"/>
<path d="M265.027 48.8443C265.054 50.4876 265.148 52.3314 265.282 54.2018C265.295 54.3087 265.295 54.4289 265.308 54.5358C265.389 55.6981 265.482 56.8605 265.576 57.9961C265.616 58.4503 265.656 58.9046 265.71 59.3455L265.723 59.3989C265.723 59.5592 265.75 59.7463 265.764 59.9066C266.179 64.1551 266.62 67.5085 266.701 67.562C266.794 67.6288 266.901 67.6555 267.022 67.6421C268.133 67.5085 271.467 67.749 274.198 67.1612C276.5 66.6802 278.481 65.7584 280.583 64.5159C280.864 64.3555 281.494 63.9147 281.44 63.594C281.386 63.2333 281.293 62.7256 281.172 62.0709C280.757 59.8131 280.048 55.9253 279.807 51.3694C279.753 50.5277 279.686 49.686 279.606 48.8577C279.378 46.7201 279.004 44.676 278.495 42.8723C277.558 39.5189 276.192 36.9404 274.465 35.9384C274.238 35.8181 273.033 36.5797 271.922 37.3011C270.891 37.9558 269.806 38.1428 268.762 38.0493L267.839 39.078C266.714 40.374 265.523 42.1108 265.201 44.5691C265.175 44.7561 265.161 44.9432 265.134 45.1436C265.027 46.1589 265 47.4282 265.027 48.8443Z" fill="#2A4E96"/>
<path d="M265.027 48.8443C265.054 50.4876 265.148 52.3314 265.282 54.2018C265.295 54.3087 265.295 54.4289 265.309 54.5358C271.681 50.5544 272.672 43.2598 272.672 43.2598C269.539 43.3934 267.036 44.1148 265.121 45.1436C265.027 46.1589 265.001 47.4282 265.027 48.8443Z" fill="#1E3D70"/>
<path d="M246.192 41.8311L245.027 41.2299C245.027 41.2299 244.277 38.7582 241.479 39.119C241.479 39.119 240.341 39.3461 240.823 40.0542C241.305 40.7623 241.225 40.4283 241.868 41.4437C242.523 42.459 243.581 43.1137 244.438 42.9934L245.415 43.2473L246.192 41.8311Z" fill="#ED975D"/>
<path d="M245.054 42.1518C245.388 41.27 245.897 41.3234 245.897 41.3234C245.897 41.3234 255.375 43.6748 256.232 43.7817C257.089 43.8886 266.447 40.1344 266.447 40.1344C266.447 40.1344 270.128 38.4777 271.855 39.9874C273.354 41.2967 273.421 42.9534 273.073 44.3429C272.658 45.9995 271.253 47.2287 269.552 47.4424C265.737 47.9234 258.12 48.8452 256.513 48.6181C252.966 48.1238 244.906 43.4878 244.906 43.4878C244.906 43.4878 244.786 42.8465 245.054 42.1518Z" fill="#2A4E96"/>
<path d="M111.301 112.853C111.301 112.853 111.569 109.914 108.289 109.914C108.289 109.914 109.28 110.181 109.802 110.716C109.802 110.716 107.714 109.487 105.424 111.37C103.149 113.254 104.568 117.984 103.871 118.879C103.175 119.774 100.485 119.961 100.806 122.86C101.14 125.759 109.374 129.393 108.838 131.798C108.838 131.798 112.064 127.069 109.762 124.904C109.762 124.904 110.886 125.96 111.007 127.216C111.007 127.216 111.315 124.757 109.748 123.982C108.37 123.288 107.232 120.749 107.352 120.295C107.473 119.854 111.301 112.853 111.301 112.853Z" fill="#2C3A64"/>
<path d="M108.33 126.642C107.821 124.21 104.662 123.449 103.162 125.439C102.894 125.8 102.707 126.214 102.64 126.722C102.305 129.487 106.723 140.737 107.352 141.752C108.504 143.609 115.304 149.969 115.304 149.969L116.563 149.207C116.563 149.207 111.743 141.071 110.994 140.309C110.137 139.427 109.294 131.264 108.33 126.642Z" fill="#ED985F"/>
<path d="M107.593 125.131C107.593 125.131 108.557 126.133 108.999 127.322C108.999 127.322 107.459 131.717 103.872 132.279C103.872 132.292 106.71 125.131 107.593 125.131Z" fill="#AA413E"/>
<path d="M110.378 112.439C110.418 112.266 106.482 114.216 106.295 114.43C104.447 116.474 104.969 119.133 106.027 119.16C106.71 119.173 106.576 120.295 106.576 120.295L114.113 117.115C114.113 117.115 113.202 111.838 110.378 112.439Z" fill="#2C3A64"/>
<path d="M102.091 176.26L100.458 176.02C100.458 176.02 94.9692 171.664 94.1526 163.541C94.0723 162.713 94.0455 161.871 94.1125 161.03C94.1259 160.936 94.1125 160.829 94.0589 160.749C93.8849 160.482 93.4431 159.801 92.8541 158.852C92.265 157.903 91.2744 156.127 90.1766 154.123C88.1953 150.515 85.8927 146.213 85.1028 144.837C82.586 140.455 83.8043 137.516 83.8043 137.516C83.8043 137.516 90.8326 136.821 92.7604 135.138L93.4565 136.207C93.4565 136.207 94.9826 142.927 94.9023 142.967C94.9826 143.194 95.0496 143.434 95.1299 143.662C96.3347 147.362 97.7136 151.985 98.4633 155.752C98.8917 157.877 99.1059 159.72 98.9854 160.976C98.9453 161.404 98.9988 162.072 99.1059 162.887C99.7753 167.723 102.091 176.26 102.091 176.26Z" fill="#2B478B"/>
<path d="M105.505 178.318H98.6908C98.6908 178.318 98.5302 177.276 98.8782 176.501C99.2129 175.753 99.7082 175.726 98.9452 174.537C99.3736 174.978 100.766 175.165 101.756 175.031C101.877 175.232 102.533 176.541 102.935 176.822C103.39 177.142 105.371 177.035 105.505 178.318Z" fill="#233862"/>
<path d="M95.1031 143.662C94.514 146.935 93.1084 152.386 90.1632 154.123C88.1819 150.515 85.8793 146.213 85.0894 144.837C82.5726 140.455 83.7909 137.516 83.7909 137.516C83.7909 137.516 90.8192 136.821 92.7469 135.138L93.4431 136.207C93.4431 136.207 94.9692 142.927 94.8889 142.967C94.9558 143.194 95.0361 143.434 95.1031 143.662Z" fill="#233862"/>
<path d="M90.3371 138.025L90.3639 136.755C87.8203 137.076 81.6087 133.723 81.6087 133.723C81.6087 133.723 78.958 135.486 78.5965 140.523C78.4225 142.981 77.298 153.362 77.1775 156.475C77.1373 157.597 77.1105 158.399 77.1105 158.72C77.1105 158.813 77.057 158.907 77.0034 158.987C76.4813 159.655 76.0262 160.363 75.6246 161.084C71.7556 168.272 73.7771 178.038 73.7771 178.038L74.6741 177.811C74.6741 177.811 77.9539 167.684 80.0825 163.302C80.444 162.554 80.7786 161.979 81.0464 161.645C81.8496 160.67 82.693 159.014 83.5364 157.023C85.1161 153.255 86.6556 148.285 87.74 144.438C87.8203 144.451 90.3371 138.025 90.3371 138.025Z" fill="#2B478B"/>
<path d="M105.184 129.54C101.034 128.591 103.684 122.766 103.925 122.873C104.501 122.753 105.759 121.751 106.897 119.787L107.044 119.921L109.588 122.152C109.588 122.152 108.999 123.02 108.504 123.862C108.115 124.53 107.781 125.185 107.834 125.412C108.048 125.572 106.295 129.794 105.184 129.54Z" fill="#FFB27D"/>
<path d="M109.588 122.152C109.588 122.152 108.999 123.02 108.504 123.862C106.924 122.887 106.924 120.936 107.045 119.921L109.588 122.152Z" fill="#ED985F"/>
<path d="M109.668 123.26C109.668 123.26 105.826 121.123 107.192 118.758C108.557 116.393 108.986 114.509 111.502 115.778C114.019 117.048 113.966 118.223 113.698 119.119C113.43 120.027 110.699 123.755 109.668 123.26Z" fill="#FFB27D"/>
<path d="M114.34 117.744C114.166 116.689 113.631 116.595 113.256 116.662C111.837 114.324 109.521 115.232 109.521 115.232C108.276 116.782 106.495 117.049 106.495 117.049C106.495 117.049 106.937 117.878 108.785 118.385C109.347 118.546 109.989 118.452 110.605 118.238C109.333 118.946 107.995 119.214 107.995 119.214C110.418 119.441 112.72 117.223 112.961 116.983C113.068 117.33 113.269 118.038 113.149 118.572C112.988 119.28 112.359 120.576 112.747 120.737C112.734 120.75 114.608 119.321 114.34 117.744Z" fill="#2C3A64"/>
<path d="M79.1856 178.317H72.3715C72.3715 178.317 72.2108 177.275 72.5589 176.5C72.8936 175.752 73.4291 175.405 73.3086 174.496C73.737 174.937 74.4465 175.445 75.4372 175.311C75.5577 175.511 76.2136 176.554 76.6152 176.834C77.057 177.141 79.0517 177.035 79.1856 178.317Z" fill="#233862"/>
<path d="M105.666 134.149C104.796 134.456 103.564 134.617 102.306 134.764C100.512 134.964 98.6642 135.098 97.7003 135.472C97.3522 135.619 97.1113 135.792 97.031 136.006C96.6159 137.262 94.7551 139.212 94.7551 139.212C82.894 138.678 81.5955 133.721 81.5955 133.721C89.5743 124.463 103.082 121.777 103.082 121.777C103.082 121.777 104.046 121.363 106.482 123.3C108.102 124.583 107.888 125.077 107.888 125.077C107.888 125.077 108.249 133.254 105.666 134.149Z" fill="#C65447"/>
<path d="M102.306 134.764C100.512 134.964 98.6642 135.098 97.7003 135.472C97.2987 129.566 100.097 125.131 100.097 125.131C100.097 125.131 101.917 132.532 102.306 134.764Z" fill="#AA413E"/>
<path d="M155.319 178.132H122.493C117.781 178.132 113.966 174.324 113.966 169.621V136.862C113.966 132.159 117.781 128.352 122.493 128.352H155.319C160.031 128.352 163.846 132.159 163.846 136.862V169.621C163.846 174.324 160.031 178.132 155.319 178.132Z" fill="#E3F0FF"/>
<path d="M157.394 140.602V164.904C157.394 166.574 156.751 168.084 155.693 169.206C154.542 170.448 152.896 171.223 151.061 171.223H126.697C124.822 171.223 123.136 170.408 121.971 169.112C120.967 167.99 120.365 166.52 120.365 164.904V140.602C120.365 137.115 123.203 134.282 126.697 134.282H151.048C154.556 134.296 157.394 137.115 157.394 140.602Z" fill="#D2E4FF"/>
<path d="M134.113 152.587C134.113 152.587 130.579 146.187 133.819 143.368C137.059 140.536 142.775 142.233 143.819 143.368C144.863 144.504 146.269 147.75 143.364 152.36L134.113 152.587Z" fill="#2C3A64"/>
<path d="M135.573 155.219C135.573 155.219 135.439 159.174 134.943 160.937L130.927 163.73L146.028 165.988L142.427 161.018C142.427 161.018 141.343 155.714 141.905 153.763C142.467 151.812 135.573 155.219 135.573 155.219Z" fill="#B56F40"/>
<path d="M135.559 155.767C135.559 155.767 136.751 158.639 139 158.572C141.249 158.505 141.758 155.967 141.758 155.967L135.559 155.767Z" fill="#99592E"/>
<path d="M138.732 157.464C137.099 157.437 134.1 155.273 134.1 152.588V148.406C134.1 147.431 134.783 146.629 135.626 146.629H141.838C142.668 146.629 143.364 147.431 143.364 148.406V152.347C143.364 155.166 140.606 157.504 138.732 157.464Z" fill="#B56F40"/>
<path d="M155.694 169.22C154.542 170.462 152.896 171.237 151.062 171.237H126.697C124.823 171.237 123.136 170.422 121.971 169.126C127.192 162.206 130.499 161.765 130.593 161.752C131.208 161.564 132.708 161.124 134.957 160.896C134.957 160.95 136.711 163.515 138.772 163.796C140.057 163.288 141.008 162.794 142.414 160.937C144.007 161.124 145.76 161.484 147.594 161.952V161.939C147.581 161.939 150.673 162.713 155.694 169.22Z" fill="#74ACBE"/>
<path d="M134.113 150.103C134.113 150.103 135.238 146.656 138.946 147.19C142.654 147.724 142.976 148.513 143.364 149.435C143.752 150.356 144.515 146.081 144.515 146.081L140.138 144.785C140.138 144.785 134.85 145.386 134.462 146.268C134.087 147.15 134.087 147.15 134.087 147.15L134.113 150.103Z" fill="#2C3A64"/>
<path d="M138.438 143.435C138.438 143.435 134.515 139.881 136.202 139.119C137.876 138.371 138.438 143.435 138.438 143.435Z" fill="#2C3A64"/>
<path d="M138.277 143.529C138.277 143.529 133.323 141.672 134.609 140.35C135.894 139.027 138.277 143.529 138.277 143.529Z" fill="#2C3A64"/>
<path d="M138.598 143.636C138.598 143.636 137.781 139.054 139.749 139.094C141.704 139.121 138.598 143.636 138.598 143.636Z" fill="#2C3A64"/>
<path d="M138.879 143.329C138.879 143.329 140.995 138.399 142.976 138.866C144.944 139.334 138.879 143.329 138.879 143.329Z" fill="#2C3A64"/>
<path d="M138.772 143.636C138.772 143.636 142.146 139.467 143.926 140.443C145.693 141.418 138.772 143.636 138.772 143.636Z" fill="#2C3A64"/>
<path d="M104.153 123.996C104.153 123.996 99.668 124.437 99.3066 127.35C98.9451 130.262 103.604 142.113 104.273 143.181C105.491 145.132 112.654 151.839 112.654 151.839L113.979 151.037C113.979 151.037 108.905 142.46 108.115 141.658C106.87 140.402 105.666 124.998 104.153 123.996Z" fill="#FFB27D"/>
<path d="M99.4272 129.099C99.4406 129.166 103.564 130.448 106.228 129.099C106.228 129.099 106.79 122.98 103.617 123.314C100.445 123.648 98.5704 124.65 98.4901 126.16C98.4098 127.669 99.4272 129.099 99.4272 129.099Z" fill="#C65447"/>
<path d="M112.64 151.839C112.64 151.839 112.092 153.936 112.64 154.885C113.189 155.833 113.966 156.568 113.966 156.568V151.037L112.64 151.839Z" fill="#FFB27D"/>
<path d="M263.729 178.132H228.694L240.207 128.352H273.555L275.095 129.033L263.729 178.132Z" fill="#CCA07F"/>
<path d="M262.042 178.132H226.994L238.521 128.352H273.555L262.042 178.132Z" fill="#E3F0FF"/>
<path d="M264.144 135.353H247.972C247.611 135.353 247.249 135.646 247.169 136.007C247.088 136.368 247.316 136.662 247.664 136.662H263.836C264.197 136.662 264.559 136.368 264.639 136.007C264.733 135.646 264.505 135.353 264.144 135.353Z" fill="#CBE2F7"/>
<path d="M263.796 138.799H246.727C246.62 138.799 246.513 138.892 246.486 138.999C246.459 139.106 246.526 139.2 246.633 139.2H263.702C263.809 139.2 263.916 139.106 263.943 138.999C263.983 138.892 263.903 138.799 263.796 138.799Z" fill="#CBE2F7"/>
<path d="M263.595 139.721H246.526C246.419 139.721 246.312 139.814 246.285 139.921C246.258 140.028 246.325 140.122 246.432 140.122H263.501C263.608 140.122 263.715 140.028 263.742 139.921C263.769 139.814 263.702 139.721 263.595 139.721Z" fill="#CBE2F7"/>
<path d="M240.556 136.648H244.92C245.281 136.648 245.643 136.354 245.723 135.994C245.803 135.633 245.576 135.339 245.228 135.339H240.863C240.502 135.339 240.141 135.633 240.06 135.994C239.966 136.354 240.194 136.648 240.556 136.648Z" fill="#CBE2F7"/>
<path d="M261.48 145.399H245.308C244.946 145.399 244.585 145.693 244.505 146.054C244.424 146.415 244.652 146.709 245 146.709H261.185C261.547 146.709 261.908 146.415 261.988 146.054C262.069 145.693 261.841 145.399 261.48 145.399Z" fill="#CBE2F7"/>
<path d="M261.132 148.859H244.063C243.956 148.859 243.849 148.953 243.822 149.06C243.795 149.167 243.862 149.26 243.969 149.26H261.051C261.158 149.26 261.265 149.167 261.292 149.06C261.319 148.94 261.252 148.859 261.132 148.859Z" fill="#CBE2F7"/>
<path d="M260.931 149.769H243.862C243.755 149.769 243.648 149.862 243.621 149.969C243.594 150.076 243.661 150.169 243.768 150.169H260.837C260.944 150.169 261.051 150.076 261.078 149.969C261.105 149.862 261.038 149.769 260.931 149.769Z" fill="#CBE2F7"/>
<path d="M237.891 146.695H242.256C242.617 146.695 242.979 146.401 243.059 146.04C243.139 145.68 242.912 145.386 242.564 145.386H238.199C237.838 145.386 237.476 145.68 237.396 146.04C237.302 146.401 237.53 146.695 237.891 146.695Z" fill="#CBE2F7"/>
<path d="M259.364 155.445H243.193C242.831 155.445 242.47 155.739 242.389 156.1C242.309 156.461 242.537 156.755 242.885 156.755H259.057C259.418 156.755 259.779 156.461 259.86 156.1C259.94 155.739 259.726 155.445 259.364 155.445Z" fill="#CBE2F7"/>
<path d="M259.017 158.906H241.948C241.841 158.906 241.734 159 241.707 159.107C241.68 159.214 241.747 159.307 241.854 159.307H258.923C259.03 159.307 259.137 159.214 259.164 159.107C259.191 158.986 259.124 158.906 259.017 158.906Z" fill="#CBE2F7"/>
<path d="M258.802 159.815H241.733C241.626 159.815 241.519 159.909 241.492 160.016C241.466 160.123 241.533 160.216 241.64 160.216H258.709C258.816 160.216 258.923 160.123 258.949 160.016C258.976 159.909 258.909 159.815 258.802 159.815Z" fill="#CBE2F7"/>
<path d="M235.763 156.741H240.127C240.489 156.741 240.85 156.447 240.93 156.086C241.011 155.726 240.783 155.432 240.435 155.432H236.071C235.709 155.432 235.348 155.726 235.268 156.086C235.187 156.46 235.415 156.741 235.763 156.741Z" fill="#CBE2F7"/>
<path d="M256.888 165.907H240.716C240.355 165.907 239.993 166.201 239.913 166.562C239.833 166.923 240.06 167.217 240.408 167.217H256.58C256.941 167.217 257.303 166.923 257.383 166.562C257.464 166.201 257.249 165.907 256.888 165.907Z" fill="#CBE2F7"/>
<path d="M256.54 169.367H239.471C239.364 169.367 239.257 169.461 239.23 169.568C239.203 169.674 239.27 169.768 239.377 169.768H256.446C256.553 169.768 256.66 169.674 256.687 169.568C256.714 169.461 256.647 169.367 256.54 169.367Z" fill="#CBE2F7"/>
<path d="M256.326 170.274H239.257C239.15 170.274 239.043 170.368 239.016 170.475C238.989 170.582 239.056 170.675 239.163 170.675H256.232C256.339 170.675 256.446 170.582 256.473 170.475C256.5 170.368 256.433 170.274 256.326 170.274Z" fill="#CBE2F7"/>
<path d="M237.958 165.907H233.594C233.233 165.907 232.871 166.201 232.791 166.562C232.71 166.923 232.938 167.217 233.286 167.217H237.65C238.012 167.217 238.373 166.923 238.454 166.562C238.547 166.201 238.32 165.907 237.958 165.907Z" fill="#CBE2F7"/>
<path d="M261.466 132.026H247.892C246.968 132.026 246.272 131.157 246.486 130.262L246.995 128.058H263.715L263.086 130.743C262.912 131.491 262.243 132.026 261.466 132.026Z" fill="#EE9849"/>
<path d="M263.715 128.044L264.867 128.351H263.635L263.715 128.044Z" fill="#ED7D2B"/>
<path d="M271.721 176.984C271.721 177.304 271.587 177.598 271.386 177.799C271.239 177.946 271.038 178.066 270.824 178.106C270.744 178.119 270.65 178.133 270.569 178.133H237.905C237.262 178.133 236.74 177.612 236.74 176.97C236.74 176.65 236.874 176.356 237.075 176.155C237.289 175.942 237.57 175.821 237.891 175.821H270.556C270.65 175.821 270.73 175.835 270.81 175.848C271.333 175.968 271.721 176.436 271.721 176.984Z" fill="#EE9849"/>
<path d="M270.824 175.821L275.081 176.77L270.824 178.133V175.821Z" fill="#739AF0"/>
<path d="M245.094 175.82V178.132H237.891C237.249 178.132 236.727 177.611 236.727 176.969C236.727 176.649 236.86 176.355 237.061 176.154C237.275 175.941 237.557 175.82 237.878 175.82H245.094Z" fill="#739AF0"/>
<path d="M340.625 178.999H0.38823C0.174034 178.999 0 178.826 0 178.612V178.478C0 178.265 0.174034 178.091 0.38823 178.091H340.625C340.839 178.091 341.013 178.265 341.013 178.478V178.612C341 178.826 340.839 178.999 340.625 178.999Z" fill="#2E3552"/>
</g>
<defs>
<clipPath id="clip0_138_2428">
<rect width="341" height="179" fill="white"/>
</clipPath>
</defs>
</svg>
