<svg width="97" height="18" viewBox="0 0 97 18" fill="none" xmlns="http://www.w3.org/2000/svg">
<path d="M8.97516 0L11.2858 5.79482L17.511 6.20168L12.7139 10.1899L14.2506 16.2362L8.97516 12.9063L3.69969 16.2362L5.23644 10.1899L0.439276 6.20168L6.66451 5.79482L8.97516 0Z" fill="#44A2FA"/>
<path d="M28.7007 0L31.0114 5.79482L37.2366 6.20168L32.4395 10.1899L33.9762 16.2362L28.7007 12.9063L23.4253 16.2362L24.962 10.1899L20.1649 6.20168L26.3901 5.79482L28.7007 0Z" fill="#44A2FA"/>
<path d="M48.4263 0L50.737 5.79482L56.9622 6.20168L52.165 10.1899L53.7018 16.2362L48.4263 12.9063L43.1509 16.2362L44.6876 10.1899L39.8904 6.20168L46.1157 5.79482L48.4263 0Z" fill="#44A2FA"/>
<path d="M68.1519 0L70.4626 5.79482L76.6878 6.20168L71.8906 10.1899L73.4274 16.2362L68.1519 12.9063L62.8765 16.2362L64.4132 10.1899L59.616 6.20168L65.8413 5.79482L68.1519 0Z" fill="#44A2FA"/>
<path d="M87.8775 0L90.1882 5.79482L96.4134 6.20168L91.6162 10.1899L93.153 16.2362L87.8775 12.9063L82.602 16.2362L84.1388 10.1899L79.3416 6.20168L85.5668 5.79482L87.8775 0Z" fill="#44A2FA"/>
</svg>
